<svg width="630" height="469" viewBox="0 0 630 469" fill="none" xmlns="http://www.w3.org/2000/svg">
<path d="M629.429 412.15H0V412.465H629.429V412.15Z" fill="#EBEBEB"/>
<path d="M566.36 432.405H496.833V432.72H566.36V432.405Z" fill="#EBEBEB"/>
<path d="M416.052 425.808H405.113V426.123H416.052V425.808Z" fill="#EBEBEB"/>
<path d="M493.044 420.723H468.887V421.037H493.044V420.723Z" fill="#EBEBEB"/>
<path d="M120.41 422.838H66.0398V423.152H120.41V422.838Z" fill="#EBEBEB"/>
<path d="M328.625 430.97H271.07V431.285H328.625V430.97Z" fill="#EBEBEB"/>
<path d="M294.749 425.645H176.819V425.96H294.749V425.645Z" fill="#EBEBEB"/>
<path d="M305.55 348.817C305.55 349.762 305.363 350.698 305.001 351.57C304.639 352.443 304.109 353.236 303.44 353.904C302.771 354.572 301.977 355.101 301.104 355.461C300.23 355.822 299.294 356.007 298.349 356.005H55.2763C53.3721 356.002 51.547 355.243 50.2017 353.895C48.8564 352.547 48.1008 350.721 48.1008 348.817V7.12513C48.1174 5.23184 48.8803 3.42155 50.2238 2.08746C51.5673 0.753374 53.383 0.0032433 55.2763 0H298.349C300.255 0 302.084 0.757313 303.432 2.10534C304.78 3.45336 305.537 5.28168 305.537 7.18807L305.55 348.817ZM305.222 7.18807C305.229 6.28063 305.056 5.38082 304.714 4.54038C304.372 3.69994 303.867 2.93545 303.228 2.29085C302.589 1.64625 301.829 1.13427 300.992 0.784332C300.155 0.434394 299.257 0.253407 298.349 0.251772H55.2763C53.4556 0.255107 51.7105 0.980732 50.4243 2.26938C49.138 3.55802 48.4155 5.30438 48.4155 7.12513V348.817C48.4155 350.638 49.138 352.384 50.4243 353.673C51.7105 354.961 53.4556 355.687 55.2763 355.69H298.349C300.171 355.687 301.917 354.962 303.206 353.673C304.494 352.385 305.219 350.639 305.222 348.817" fill="#EBEBEB"/>
<path d="M570.653 356.005H327.567C325.662 356.002 323.835 355.243 322.488 353.896C321.141 352.549 320.382 350.722 320.379 348.817V7.12513C320.399 5.23069 321.165 3.42041 322.51 2.08667C323.856 0.752934 325.673 0.00320793 327.567 0H570.653C572.544 0.00655172 574.356 0.758146 575.697 2.09188C577.038 3.42561 577.799 5.23402 577.815 7.12513V348.817C577.815 350.719 577.062 352.543 575.719 353.891C574.376 355.238 572.555 355.998 570.653 356.005ZM327.567 0.251772C325.745 0.2551 323.999 0.980323 322.711 2.26861C321.422 3.55689 320.697 5.30323 320.694 7.12513V348.817C320.697 350.639 321.422 352.385 322.711 353.673C323.999 354.962 325.745 355.687 327.567 355.69H570.653C572.474 355.687 574.221 354.962 575.509 353.673C576.797 352.385 577.523 350.639 577.526 348.817V7.12513C577.523 5.30323 576.797 3.55689 575.509 2.26861C574.221 0.980323 572.474 0.2551 570.653 0.251772H327.567Z" fill="#EBEBEB"/>
<path d="M427.395 87.8683H343.87V184.712H427.395V87.8683Z" fill="#E6E6E6"/>
<path d="M433.223 87.8683H345.128V184.712H433.223V87.8683Z" fill="#F0F0F0"/>
<path d="M425.846 177.348V95.2578H352.518V177.348H425.846Z" fill="white"/>
<path d="M407.014 154.839H387.98C383.376 154.833 378.962 153 375.708 149.743C372.453 146.486 370.623 142.071 370.62 137.467V118.446C370.62 118.259 370.694 118.08 370.827 117.947C370.959 117.815 371.138 117.741 371.325 117.741H390.359C394.965 117.744 399.382 119.576 402.639 122.833C405.897 126.09 407.728 130.507 407.731 135.113V154.147C407.73 154.24 407.71 154.331 407.673 154.416C407.636 154.501 407.583 154.578 407.516 154.642C407.449 154.706 407.371 154.757 407.284 154.791C407.198 154.825 407.106 154.841 407.014 154.839ZM372.03 119.151V137.467C372.037 141.695 373.719 145.748 376.709 148.738C379.699 151.728 383.752 153.41 387.98 153.417H406.309V135.113C406.305 130.884 404.624 126.829 401.633 123.839C398.643 120.848 394.588 119.167 390.359 119.163L372.03 119.151Z" fill="#F0F0F0"/>
<path d="M548.081 124.274H452.446L460.918 54.1057H539.609L548.081 124.274Z" fill="#EBEBEB"/>
<path d="M468.282 124.262H466.747V151.138H468.282V124.262Z" fill="#E0E0E0"/>
<path d="M467.514 152.976C468.529 152.976 469.352 152.154 469.352 151.138C469.352 150.123 468.529 149.301 467.514 149.301C466.499 149.301 465.677 150.123 465.677 151.138C465.677 152.154 466.499 152.976 467.514 152.976Z" fill="#E0E0E0"/>
<path d="M527.096 124.274H510.655L507.168 54.1057H522.338L527.096 124.274Z" fill="#F5F5F5"/>
<path d="M505.053 124.262H495.486V412.137H505.053V124.262Z" fill="#F0F0F0"/>
<path d="M515.402 412.15H485.126C485.126 410.439 485.805 408.799 487.013 407.588C488.221 406.377 489.861 405.695 491.571 405.692H508.956C510.667 405.695 512.306 406.377 513.514 407.588C514.723 408.799 515.402 410.439 515.402 412.15Z" fill="#F0F0F0"/>
<path d="M505.053 124.262H495.486V130.103H505.053V124.262Z" fill="#E0E0E0"/>
<path d="M489.167 276.105C488.399 276.105 487.631 276.105 486.85 276.181C482.001 276.518 477.287 277.925 473.047 280.302C468.806 282.678 465.145 285.965 462.326 289.925C459.507 293.885 457.6 298.42 456.743 303.205C455.886 307.99 456.099 312.905 457.368 317.597C460.959 331.606 462.694 346.026 462.529 360.486V402.608C462.528 403.334 462.67 404.053 462.947 404.725C463.224 405.396 463.631 406.006 464.144 406.519C464.658 407.033 465.268 407.44 465.939 407.717C466.61 407.994 467.33 408.136 468.056 408.134H558.693V276.105H489.167Z" fill="#F0F0F0"/>
<path d="M591.663 309.024C591.661 304.335 590.659 299.701 588.722 295.43C586.785 291.16 583.958 287.352 580.431 284.263C576.904 281.173 572.758 278.872 568.27 277.514C563.782 276.155 559.056 275.771 554.407 276.387C549.759 277.002 545.296 278.604 541.316 281.083C537.336 283.563 533.932 286.864 531.331 290.765C528.73 294.667 526.992 299.079 526.233 303.706C525.475 308.333 525.713 313.069 526.932 317.597C530.523 331.606 532.259 346.026 532.094 360.486V402.608C532.092 403.334 532.234 404.053 532.511 404.725C532.788 405.396 533.195 406.006 533.709 406.519C534.222 407.033 534.832 407.44 535.503 407.717C536.174 407.994 536.894 408.136 537.62 408.134H579.842C581.308 408.134 582.713 407.552 583.75 406.516C584.786 405.479 585.368 404.073 585.368 402.608V358.019C585.225 344.455 586.919 330.933 590.404 317.824C591.222 314.961 591.645 312.001 591.663 309.024Z" fill="#F5F5F5"/>
<path d="M542.013 327.97H391.882V408.134H542.013V327.97Z" fill="#F0F0F0"/>
<path d="M447.952 222.944H337.172C333.98 222.886 330.811 223.508 327.878 224.769C324.944 226.03 322.312 227.901 320.157 230.257C318.002 232.614 316.373 235.402 315.378 238.436C314.383 241.47 314.045 244.681 314.387 247.856L322.821 346.047H483.401L474.967 247.856C474.288 241.119 471.164 234.864 466.187 230.274C461.209 225.683 454.722 223.076 447.952 222.944Z" fill="#E0E0E0"/>
<path d="M480.531 222.944H367.36C364.319 222.885 361.301 223.474 358.506 224.673C355.711 225.872 353.204 227.653 351.152 229.897C349.099 232.142 347.549 234.797 346.604 237.688C345.658 240.578 345.34 243.637 345.67 246.66L354.217 346.11H514.873L506.325 246.66C505.683 240.232 502.701 234.263 497.945 229.89C493.189 225.517 486.991 223.044 480.531 222.944Z" fill="#F5F5F5"/>
<path d="M394.35 320.656H539.471C541.658 320.656 543.755 321.525 545.301 323.071C546.848 324.618 547.716 326.715 547.716 328.902V345.053C547.716 347.24 546.848 349.337 545.301 350.883C543.755 352.43 541.658 353.298 539.471 353.298H394.35C393.682 353.298 393.042 353.033 392.569 352.561C392.097 352.089 391.832 351.448 391.832 350.781V323.086C391.855 322.433 392.13 321.815 392.6 321.362C393.07 320.909 393.697 320.656 394.35 320.656Z" fill="#E0E0E0"/>
<path d="M311.001 276.105C310.229 276.105 309.461 276.13 308.697 276.181C303.85 276.523 299.138 277.933 294.899 280.311C290.661 282.688 287.001 285.974 284.182 289.933C281.363 293.891 279.454 298.424 278.593 303.207C277.732 307.99 277.94 312.904 279.202 317.597C282.799 331.605 284.535 346.025 284.363 360.486V402.608C284.363 404.074 284.946 405.479 285.982 406.516C287.018 407.552 288.424 408.134 289.89 408.134H380.528V276.105H311.001Z" fill="#F0F0F0"/>
<path d="M413.459 309.024C413.444 304.343 412.432 299.719 410.489 295.461C408.547 291.202 405.718 287.406 402.193 284.327C398.668 281.247 394.527 278.955 390.045 277.602C385.564 276.249 380.846 275.867 376.206 276.481C371.565 277.095 367.109 278.692 363.134 281.164C359.159 283.637 355.757 286.928 353.155 290.819C350.552 294.709 348.809 299.11 348.042 303.728C347.274 308.345 347.5 313.074 348.704 317.597C352.301 331.605 354.036 346.025 353.865 360.486V402.608C353.865 403.335 354.008 404.054 354.287 404.726C354.565 405.397 354.973 406.007 355.488 406.52C356.002 407.033 356.613 407.44 357.285 407.717C357.957 407.994 358.677 408.136 359.404 408.134H401.613C402.34 408.136 403.059 407.994 403.73 407.717C404.401 407.44 405.011 407.033 405.525 406.519C406.038 406.006 406.445 405.396 406.722 404.725C407 404.053 407.141 403.334 407.14 402.608V358.019C407.021 344.451 408.74 330.93 412.251 317.824C413.046 314.958 413.452 311.998 413.459 309.024Z" fill="#F5F5F5"/>
<path d="M541.989 412.15H313.355C312.29 412.15 311.268 411.727 310.515 410.974C309.762 410.221 309.339 409.199 309.339 408.134H546.004C546.004 409.199 545.581 410.221 544.828 410.974C544.075 411.727 543.054 412.15 541.989 412.15Z" fill="#E0E0E0"/>
<path d="M85.64 43.8461H58.0459V412.15H85.64V43.8461Z" fill="#E6E6E6"/>
<path d="M85.6276 412.15L327.794 412.15L327.794 43.8459L85.6276 43.8459L85.6276 412.15Z" fill="#F5F5F5"/>
<path d="M323.274 412.15V49.2717L90.1592 49.2717L90.1592 412.15H323.274Z" fill="#E6E6E6"/>
<path d="M109.672 412.15L109.672 49.2717H90.1593L90.1593 412.15H109.672Z" fill="#E0E0E0"/>
<path d="M325.729 347.457V342.044H90.1595V347.457H325.729Z" fill="#F5F5F5"/>
<path d="M325.729 271.422V266.009H90.1595V271.422H325.729Z" fill="#F5F5F5"/>
<path d="M325.729 195.4V189.974L90.1595 189.974V195.4H325.729Z" fill="#F5F5F5"/>
<path d="M325.729 119.352V113.939L90.1595 113.939V119.352L325.729 119.352Z" fill="#F5F5F5"/>
<path d="M110.931 113.952H145.965V62.3009L110.931 62.3009V113.952Z" fill="#FAFAFA"/>
<path d="M149.691 62.2883H142.968C141.912 62.2883 141.055 63.145 141.055 64.2017V112.026C141.055 113.083 141.912 113.939 142.968 113.939H149.691C150.747 113.939 151.604 113.083 151.604 112.026V64.2017C151.604 63.145 150.747 62.2883 149.691 62.2883Z" fill="#F0F0F0"/>
<path d="M99.1225 113.952H134.156V62.3009L99.1225 62.3009V113.952Z" fill="#FAFAFA"/>
<path d="M137.908 62.2883H131.185C130.129 62.2883 129.272 63.145 129.272 64.2017V112.026C129.272 113.083 130.129 113.939 131.185 113.939H137.908C138.965 113.939 139.821 113.083 139.821 112.026V64.2017C139.821 63.145 138.965 62.2883 137.908 62.2883Z" fill="#E6E6E6"/>
<path d="M90.1594 62.2883H120.397L117.993 113.952H90.1594V62.2883Z" fill="#FAFAFA"/>
<path d="M124.299 62.2883H117.237C116.723 62.3391 116.248 62.583 115.906 62.9709C115.565 63.3588 115.384 63.8616 115.399 64.378L113.184 111.862C113.15 112.108 113.167 112.359 113.232 112.598C113.298 112.838 113.411 113.062 113.565 113.257C113.719 113.452 113.91 113.614 114.128 113.733C114.346 113.853 114.586 113.927 114.833 113.952H121.895C122.407 113.895 122.879 113.65 123.219 113.263C123.559 112.877 123.742 112.377 123.733 111.862L125.949 64.378C125.984 64.1315 125.968 63.8805 125.904 63.6402C125.839 63.3998 125.726 63.1751 125.572 62.9797C125.418 62.7843 125.225 62.6222 125.007 62.5034C124.788 62.3845 124.547 62.3113 124.299 62.2883Z" fill="#F0F0F0"/>
<path d="M272.945 113.939H299.507V70.3323H272.945V113.939Z" fill="#FAFAFA"/>
<path d="M302.264 70.345H297.317C296.476 70.345 295.794 71.0269 295.794 71.8682V112.429C295.794 113.27 296.476 113.952 297.317 113.952H302.264C303.105 113.952 303.787 113.27 303.787 112.429V71.8682C303.787 71.0269 303.105 70.345 302.264 70.345Z" fill="#F0F0F0"/>
<path d="M263.995 113.939H290.557V70.3323H263.995V113.939Z" fill="#FAFAFA"/>
<path d="M293.326 70.345H288.379C287.538 70.345 286.856 71.0269 286.856 71.8682V112.429C286.856 113.27 287.538 113.952 288.379 113.952H293.326C294.167 113.952 294.849 113.27 294.849 112.429V71.8682C294.849 71.0269 294.167 70.345 293.326 70.345Z" fill="#E6E6E6"/>
<path d="M257.197 70.345H280.121L278.296 113.952H257.197V70.345Z" fill="#FAFAFA"/>
<path d="M283.079 70.345H277.729C276.999 70.345 276.382 71.1381 276.332 72.1074L274.657 112.189C274.657 113.159 275.173 113.952 275.916 113.952H281.279C282.009 113.952 282.626 113.159 282.664 112.189L284.35 72.1074C284.376 71.1381 283.809 70.345 283.079 70.345Z" fill="#F0F0F0"/>
<path d="M238.692 113.939H265.254V70.3323H238.692V113.939Z" fill="#FAFAFA"/>
<path d="M268.011 70.345H263.064C262.222 70.345 261.54 71.0269 261.54 71.8682V112.429C261.54 113.27 262.222 113.952 263.064 113.952H268.011C268.852 113.952 269.534 113.27 269.534 112.429V71.8682C269.534 71.0269 268.852 70.345 268.011 70.345Z" fill="#F0F0F0"/>
<path d="M229.754 113.939H256.316V70.3323H229.754V113.939Z" fill="#FAFAFA"/>
<path d="M259.073 70.345H254.126C253.284 70.345 252.602 71.0269 252.602 71.8682V112.429C252.602 113.27 253.284 113.952 254.126 113.952H259.073C259.914 113.952 260.596 113.27 260.596 112.429V71.8682C260.596 71.0269 259.914 70.345 259.073 70.345Z" fill="#E6E6E6"/>
<path d="M222.956 70.345H245.867L244.054 113.952H222.956V70.345Z" fill="#FAFAFA"/>
<path d="M248.838 70.345H243.476C242.746 70.345 242.129 71.1381 242.091 72.1074L240.442 112.189C240.442 113.159 240.971 113.952 241.701 113.952H247.051C247.781 113.952 248.398 113.159 248.448 112.189L250.123 72.1074C250.123 71.1381 249.569 70.345 248.838 70.345Z" fill="#F0F0F0"/>
<path d="M188.652 113.952H207.17V67.0845H188.652V113.952Z" fill="#FAFAFA"/>
<path d="M208.844 67.0719H205.911C205.181 67.0719 204.589 67.6637 204.589 68.3937V112.617C204.589 113.347 205.181 113.939 205.911 113.939H208.844C209.574 113.939 210.166 113.347 210.166 112.617V68.3937C210.166 67.6637 209.574 67.0719 208.844 67.0719Z" fill="#F0F0F0"/>
<path d="M173.231 113.952H193.637V62.3009H173.231V113.952Z" fill="#FAFAFA"/>
<path d="M195.475 62.2883H192.253C191.446 62.2883 190.792 62.9421 190.792 63.7485V112.479C190.792 113.285 191.446 113.939 192.253 113.939H195.475C196.282 113.939 196.936 113.285 196.936 112.479V63.7485C196.936 62.9421 196.282 62.2883 195.475 62.2883Z" fill="#F5F5F5"/>
<path d="M168.007 62.2883H185.618L184.221 113.952H168.007V62.2883Z" fill="#FAFAFA"/>
<path d="M187.897 62.2883H183.793C183.239 62.2883 182.748 63.2198 182.723 64.378L181.464 111.862C181.464 113.008 181.854 113.952 182.421 113.952H186.537C187.091 113.952 187.57 113.008 187.607 111.862L188.866 64.378C188.828 63.2198 188.451 62.2883 187.897 62.2883Z" fill="#F0F0F0"/>
<path d="M204.199 189.987H239.233V138.336H204.199V189.987Z" fill="#FAFAFA"/>
<path d="M242.972 138.323H236.25C235.193 138.323 234.336 139.18 234.336 140.237V188.061C234.336 189.117 235.193 189.974 236.25 189.974H242.972C244.029 189.974 244.885 189.117 244.885 188.061V140.237C244.885 139.18 244.029 138.323 242.972 138.323Z" fill="#F0F0F0"/>
<path d="M192.416 189.987H227.45V138.336H192.416V189.987Z" fill="#FAFAFA"/>
<path d="M231.177 138.323H224.454C223.397 138.323 222.541 139.18 222.541 140.237V188.061C222.541 189.117 223.397 189.974 224.454 189.974H231.177C232.233 189.974 233.09 189.117 233.09 188.061V140.237C233.09 139.18 232.233 138.323 231.177 138.323Z" fill="#E6E6E6"/>
<path d="M183.441 138.323H213.666L211.261 189.987H183.441V138.323Z" fill="#FAFAFA"/>
<path d="M217.581 138.323H210.519C210.005 138.374 209.529 138.618 209.188 139.006C208.847 139.394 208.666 139.897 208.681 140.413L206.453 187.897C206.418 188.143 206.433 188.394 206.498 188.635C206.562 188.875 206.675 189.1 206.829 189.295C206.984 189.491 207.176 189.653 207.395 189.772C207.613 189.89 207.854 189.964 208.102 189.987H215.164C215.676 189.93 216.148 189.685 216.488 189.298C216.828 188.912 217.011 188.412 217.002 187.897L219.205 140.413C219.242 140.168 219.229 139.918 219.166 139.679C219.104 139.439 218.993 139.215 218.842 139.02C218.69 138.824 218.5 138.662 218.283 138.542C218.066 138.422 217.827 138.348 217.581 138.323Z" fill="#F0F0F0"/>
<path d="M257.902 189.974H279.366V146.367H257.902V189.974Z" fill="#FAFAFA"/>
<path d="M281.455 146.38H277.742C276.984 146.38 276.37 146.994 276.37 147.752V188.615C276.37 189.372 276.984 189.987 277.742 189.987H281.455C282.213 189.987 282.828 189.372 282.828 188.615V147.752C282.828 146.994 282.213 146.38 281.455 146.38Z" fill="#F0F0F0"/>
<path d="M250.676 189.974H272.14V146.367H250.676V189.974Z" fill="#FAFAFA"/>
<path d="M274.23 146.38H270.516C269.758 146.38 269.144 146.994 269.144 147.752V188.615C269.144 189.372 269.758 189.987 270.516 189.987H274.23C274.987 189.987 275.602 189.372 275.602 188.615V147.752C275.602 146.994 274.987 146.38 274.23 146.38Z" fill="#E6E6E6"/>
<path d="M245.175 146.38H263.705L262.233 189.987H245.175V146.38Z" fill="#FAFAFA"/>
<path d="M266.097 146.38H261.767C261.175 146.38 260.672 147.173 260.647 148.142L259.325 188.224C259.325 189.194 259.74 189.987 260.332 189.987H264.662C265.254 189.987 265.757 189.194 265.783 188.224L267.142 148.142C267.142 147.173 266.689 146.38 266.097 146.38Z" fill="#F0F0F0"/>
<path d="M293.717 189.987H311.492V153.87H293.717V189.987Z" fill="#FAFAFA"/>
<path d="M313.216 153.858H310.132C309.506 153.858 308.999 154.365 308.999 154.991V188.841C308.999 189.467 309.506 189.974 310.132 189.974H313.216C313.842 189.974 314.349 189.467 314.349 188.841V154.991C314.349 154.365 313.842 153.858 313.216 153.858Z" fill="#F0F0F0"/>
<path d="M287.724 189.987H305.5V153.87H287.724V189.987Z" fill="#FAFAFA"/>
<path d="M307.237 153.858H304.152C303.527 153.858 303.02 154.365 303.02 154.991V188.841C303.02 189.467 303.527 189.974 304.152 189.974H307.237C307.862 189.974 308.37 189.467 308.37 188.841V154.991C308.37 154.365 307.862 153.858 307.237 153.858Z" fill="#E6E6E6"/>
<path d="M283.167 153.858H298.513L297.292 189.987H283.167V153.858Z" fill="#FAFAFA"/>
<path d="M300.502 153.858H296.914C296.423 153.858 296.008 154.512 295.983 155.318L294.862 188.526C294.862 189.332 295.202 189.987 295.693 189.987H299.281C299.759 189.987 300.187 189.332 300.212 188.526L301.333 155.318C301.358 154.512 300.98 153.858 300.502 153.858Z" fill="#F0F0F0"/>
<path d="M148.042 189.974H174.604V146.367H148.042V189.974Z" fill="#FAFAFA"/>
<path d="M177.373 146.38H172.426C171.585 146.38 170.903 147.062 170.903 147.903V188.464C170.903 189.305 171.585 189.987 172.426 189.987H177.373C178.214 189.987 178.896 189.305 178.896 188.464V147.903C178.896 147.062 178.214 146.38 177.373 146.38Z" fill="#F0F0F0"/>
<path d="M139.116 189.974H165.678V146.367H139.116V189.974Z" fill="#FAFAFA"/>
<path d="M168.422 146.38H163.475C162.634 146.38 161.952 147.062 161.952 147.903V188.464C161.952 189.305 162.634 189.987 163.475 189.987H168.422C169.264 189.987 169.946 189.305 169.946 188.464V147.903C169.946 147.062 169.264 146.38 168.422 146.38Z" fill="#E6E6E6"/>
<path d="M132.306 146.38H155.23L153.404 189.987H132.306V146.38Z" fill="#FAFAFA"/>
<path d="M158.188 146.38H152.838C152.428 146.448 152.057 146.666 151.799 146.992C151.541 147.317 151.413 147.728 151.44 148.142L149.804 188.224C149.804 189.194 150.32 189.987 151.063 189.987H156.413C156.823 189.919 157.193 189.701 157.452 189.375C157.71 189.049 157.838 188.639 157.81 188.224L159.485 148.142C159.485 147.173 158.918 146.38 158.188 146.38Z" fill="#F0F0F0"/>
<path d="M110.804 189.987H129.322V143.12H110.804V189.987Z" fill="#FAFAFA"/>
<path d="M130.984 143.107H128.051C127.321 143.107 126.729 143.699 126.729 144.429V188.652C126.729 189.382 127.321 189.974 128.051 189.974H130.984C131.714 189.974 132.306 189.382 132.306 188.652V144.429C132.306 143.699 131.714 143.107 130.984 143.107Z" fill="#F0F0F0"/>
<path d="M95.3837 189.987H115.79V138.336H95.3837V189.987Z" fill="#FAFAFA"/>
<path d="M117.615 138.323H114.392C113.586 138.323 112.932 138.977 112.932 139.784V188.514C112.932 189.32 113.586 189.974 114.392 189.974H117.615C118.422 189.974 119.075 189.32 119.075 188.514V139.784C119.075 138.977 118.422 138.323 117.615 138.323Z" fill="#F5F5F5"/>
<path d="M90.1594 138.323H107.771L106.374 189.987H90.1594V138.323Z" fill="#FAFAFA"/>
<path d="M110.049 138.323H105.933C105.366 138.323 104.888 139.255 104.863 140.413L103.604 187.897C103.604 189.043 104.007 189.987 104.573 189.987H108.639C109.206 189.987 109.684 189.043 109.709 187.897L110.968 140.413C111.031 139.255 110.603 138.323 110.049 138.323Z" fill="#F0F0F0"/>
<path d="M110.931 266.022H145.965V214.371H110.931V266.022Z" fill="#FAFAFA"/>
<path d="M149.691 214.358H142.968C141.912 214.358 141.055 215.215 141.055 216.272V264.096C141.055 265.153 141.912 266.009 142.968 266.009H149.691C150.747 266.009 151.604 265.153 151.604 264.096V216.272C151.604 215.215 150.747 214.358 149.691 214.358Z" fill="#F0F0F0"/>
<path d="M99.1225 266.022H134.156V214.371H99.1225V266.022Z" fill="#FAFAFA"/>
<path d="M137.908 214.358H131.185C130.129 214.358 129.272 215.215 129.272 216.272V264.096C129.272 265.153 130.129 266.009 131.185 266.009H137.908C138.965 266.009 139.821 265.153 139.821 264.096V216.272C139.821 215.215 138.965 214.358 137.908 214.358Z" fill="#E6E6E6"/>
<path d="M90.1594 214.358H120.397L117.993 266.022H90.1594V214.358Z" fill="#FAFAFA"/>
<path d="M124.299 214.358H117.237C116.723 214.409 116.248 214.653 115.906 215.041C115.565 215.429 115.384 215.932 115.399 216.448L113.184 263.932C113.15 264.178 113.167 264.429 113.232 264.668C113.298 264.908 113.411 265.132 113.565 265.327C113.719 265.522 113.91 265.684 114.128 265.803C114.346 265.923 114.586 265.997 114.833 266.022H121.895C122.407 265.965 122.879 265.72 123.219 265.333C123.559 264.947 123.742 264.447 123.733 263.932L125.949 216.448C125.984 216.202 125.968 215.951 125.904 215.71C125.839 215.47 125.726 215.245 125.572 215.05C125.418 214.854 125.225 214.692 125.007 214.573C124.788 214.455 124.547 214.381 124.299 214.358Z" fill="#F0F0F0"/>
<path d="M272.945 266.009H299.507V222.402H272.945V266.009Z" fill="#FAFAFA"/>
<path d="M302.264 222.415H297.317C296.476 222.415 295.794 223.097 295.794 223.938V264.499C295.794 265.34 296.476 266.022 297.317 266.022H302.264C303.105 266.022 303.787 265.34 303.787 264.499V223.938C303.787 223.097 303.105 222.415 302.264 222.415Z" fill="#F0F0F0"/>
<path d="M263.995 266.009H290.557V222.402H263.995V266.009Z" fill="#FAFAFA"/>
<path d="M293.326 222.415H288.379C287.538 222.415 286.856 223.097 286.856 223.938V264.499C286.856 265.34 287.538 266.022 288.379 266.022H293.326C294.167 266.022 294.849 265.34 294.849 264.499V223.938C294.849 223.097 294.167 222.415 293.326 222.415Z" fill="#E6E6E6"/>
<path d="M257.197 222.415H280.121L278.296 266.022H257.197V222.415Z" fill="#FAFAFA"/>
<path d="M283.079 222.415H277.729C276.999 222.415 276.382 223.208 276.332 224.177L274.657 264.259C274.657 265.229 275.173 266.022 275.916 266.022H281.279C282.009 266.022 282.626 265.229 282.664 264.259L284.35 224.177C284.376 223.208 283.809 222.415 283.079 222.415Z" fill="#F0F0F0"/>
<path d="M238.692 266.009H265.254V222.402H238.692V266.009Z" fill="#FAFAFA"/>
<path d="M268.011 222.415H263.064C262.222 222.415 261.54 223.097 261.54 223.938V264.499C261.54 265.34 262.222 266.022 263.064 266.022H268.011C268.852 266.022 269.534 265.34 269.534 264.499V223.938C269.534 223.097 268.852 222.415 268.011 222.415Z" fill="#F0F0F0"/>
<path d="M229.754 266.009H256.316V222.402H229.754V266.009Z" fill="#FAFAFA"/>
<path d="M259.073 222.415H254.126C253.284 222.415 252.602 223.097 252.602 223.938V264.499C252.602 265.34 253.284 266.022 254.126 266.022H259.073C259.914 266.022 260.596 265.34 260.596 264.499V223.938C260.596 223.097 259.914 222.415 259.073 222.415Z" fill="#E6E6E6"/>
<path d="M222.956 222.415H245.867L244.054 266.022H222.956V222.415Z" fill="#FAFAFA"/>
<path d="M248.838 222.415H243.476C242.746 222.415 242.129 223.208 242.091 224.177L240.442 264.259C240.442 265.229 240.971 266.022 241.701 266.022H247.051C247.781 266.022 248.398 265.229 248.448 264.259L250.123 224.177C250.123 223.208 249.569 222.415 248.838 222.415Z" fill="#F0F0F0"/>
<path d="M188.652 266.022H207.17V219.154H188.652V266.022Z" fill="#FAFAFA"/>
<path d="M208.844 219.142H205.911C205.181 219.142 204.589 219.734 204.589 220.464V264.687C204.589 265.417 205.181 266.009 205.911 266.009H208.844C209.574 266.009 210.166 265.417 210.166 264.687V220.464C210.166 219.734 209.574 219.142 208.844 219.142Z" fill="#F0F0F0"/>
<path d="M173.231 266.022H193.637V214.371H173.231V266.022Z" fill="#FAFAFA"/>
<path d="M195.475 214.358H192.253C191.446 214.358 190.792 215.012 190.792 215.819V264.549C190.792 265.355 191.446 266.009 192.253 266.009H195.475C196.282 266.009 196.936 265.355 196.936 264.549V215.819C196.936 215.012 196.282 214.358 195.475 214.358Z" fill="#F5F5F5"/>
<path d="M168.007 214.358H185.618L184.221 266.022H168.007V214.358Z" fill="#FAFAFA"/>
<path d="M187.897 214.358H183.793C183.239 214.358 182.748 215.29 182.723 216.448L181.464 263.932C181.464 265.078 181.854 266.022 182.421 266.022H186.537C187.091 266.022 187.57 265.078 187.607 263.932L188.866 216.448C188.828 215.265 188.451 214.358 187.897 214.358Z" fill="#F0F0F0"/>
<path d="M103.453 412.15H125.898V360.499H103.453V412.15Z" fill="#FAFAFA"/>
<path d="M128.001 360.486H124.287C123.446 360.486 122.764 361.168 122.764 362.01V410.614C122.764 411.455 123.446 412.137 124.287 412.137H128.001C128.842 412.137 129.524 411.455 129.524 410.614V362.01C129.524 361.168 128.842 360.486 128.001 360.486Z" fill="#F0F0F0"/>
<path d="M95.9125 412.15H118.358V360.499H95.9125V412.15Z" fill="#FAFAFA"/>
<path d="M120.448 360.486H116.734C115.893 360.486 115.211 361.168 115.211 362.01V410.614C115.211 411.455 115.893 412.137 116.734 412.137H120.448C121.289 412.137 121.971 411.455 121.971 410.614V362.01C121.971 361.168 121.289 360.486 120.448 360.486Z" fill="#E6E6E6"/>
<path d="M90.1594 360.499H109.521L107.985 412.15H90.1594V360.499Z" fill="#FAFAFA"/>
<path d="M112.038 360.486H107.506C106.889 360.486 106.361 361.43 106.323 362.576L104.913 410.06C104.913 411.218 105.354 412.15 105.971 412.15H110.49C111.107 412.15 111.635 411.218 111.673 410.06L113.083 362.551C113.121 361.43 112.642 360.486 112.038 360.486Z" fill="#F0F0F0"/>
<path d="M291.249 412.15H314.651V368.543H291.249V412.15Z" fill="#FAFAFA"/>
<path d="M316.993 368.543H312.814C312.021 368.543 311.378 369.185 311.378 369.978V410.715C311.378 411.507 312.021 412.15 312.814 412.15H316.993C317.785 412.15 318.428 411.507 318.428 410.715V369.978C318.428 369.185 317.785 368.543 316.993 368.543Z" fill="#F0F0F0"/>
<path d="M283.369 412.15H306.771V368.543H283.369V412.15Z" fill="#FAFAFA"/>
<path d="M309.112 368.543H304.933C304.14 368.543 303.498 369.185 303.498 369.978V410.715C303.498 411.507 304.14 412.15 304.933 412.15H309.112C309.905 412.15 310.547 411.507 310.547 410.715V369.978C310.547 369.185 309.905 368.543 309.112 368.543Z" fill="#E6E6E6"/>
<path d="M277.376 368.543H297.569L295.957 412.15H277.376V368.543Z" fill="#FAFAFA"/>
<path d="M300.187 368.543H295.467C294.825 368.543 294.208 369.336 294.208 370.305L292.76 410.387C292.76 411.357 293.213 412.15 293.855 412.15H298.576C299.218 412.15 299.772 411.357 299.835 410.387L301.308 370.305C301.32 369.336 300.867 368.543 300.187 368.543Z" fill="#F0F0F0"/>
<path d="M261.062 412.15H284.464V368.543H261.062V412.15Z" fill="#FAFAFA"/>
<path d="M286.805 368.543H282.626C281.833 368.543 281.191 369.185 281.191 369.978V410.715C281.191 411.507 281.833 412.15 282.626 412.15H286.805C287.598 412.15 288.241 411.507 288.241 410.715V369.978C288.241 369.185 287.598 368.543 286.805 368.543Z" fill="#F0F0F0"/>
<path d="M253.181 412.15H276.583V368.543H253.181V412.15Z" fill="#FAFAFA"/>
<path d="M278.925 368.543H274.746C273.953 368.543 273.311 369.185 273.311 369.978V410.715C273.311 411.507 273.953 412.15 274.746 412.15H278.925C279.718 412.15 280.36 411.507 280.36 410.715V369.978C280.36 369.185 279.718 368.543 278.925 368.543Z" fill="#E6E6E6"/>
<path d="M247.189 368.543H267.381L265.783 412.15H247.189V368.543Z" fill="#FAFAFA"/>
<path d="M270 368.543H265.279C264.637 368.543 264.083 369.336 264.02 370.305L262.573 410.387C262.573 411.357 263.026 412.15 263.668 412.15H268.388C269.03 412.15 269.647 411.357 269.647 410.387L271.12 370.305C271.133 369.336 270.654 368.543 270 368.543Z" fill="#F0F0F0"/>
<path d="M237.03 412.15H253.345V365.283H237.03V412.15Z" fill="#FAFAFA"/>
<path d="M252.313 365.283H254.742C255.076 365.283 255.396 365.415 255.633 365.651C255.869 365.887 256.001 366.208 256.001 366.542V410.929C256.001 411.263 255.869 411.583 255.633 411.819C255.396 412.055 255.076 412.188 254.742 412.188H252.313C251.979 412.188 251.659 412.055 251.423 411.819C251.187 411.583 251.054 411.263 251.054 410.929V366.516C251.061 366.187 251.196 365.873 251.431 365.642C251.667 365.412 251.983 365.283 252.313 365.283Z" fill="#F0F0F0"/>
<path d="M223.447 412.15H241.424V360.499H223.447V412.15Z" fill="#FAFAFA"/>
<path d="M242.947 360.486H240.278C239.52 360.486 238.906 361.101 238.906 361.859V410.765C238.906 411.523 239.52 412.137 240.278 412.137H242.947C243.705 412.137 244.319 411.523 244.319 410.765V361.859C244.319 361.101 243.705 360.486 242.947 360.486Z" fill="#F5F5F5"/>
<path d="M218.84 360.499H234.362L233.128 412.15H218.84V360.499Z" fill="#FAFAFA"/>
<path d="M236.363 360.486H232.738C232.247 360.486 231.819 361.43 231.793 362.576L230.66 410.06C230.66 411.218 231.013 412.15 231.504 412.15H235.129C235.62 412.15 236.048 411.218 236.073 410.06L237.206 362.576C237.232 361.43 236.854 360.486 236.363 360.486Z" fill="#F0F0F0"/>
<path d="M204.199 342.057H239.233V290.406H204.199V342.057Z" fill="#FAFAFA"/>
<path d="M242.972 290.393H236.25C235.193 290.393 234.336 291.25 234.336 292.307V340.131C234.336 341.188 235.193 342.044 236.25 342.044H242.972C244.029 342.044 244.885 341.188 244.885 340.131V292.307C244.885 291.25 244.029 290.393 242.972 290.393Z" fill="#F0F0F0"/>
<path d="M192.416 342.057H227.45V290.406H192.416V342.057Z" fill="#FAFAFA"/>
<path d="M231.177 290.393H224.454C223.397 290.393 222.541 291.25 222.541 292.307V340.131C222.541 341.188 223.397 342.044 224.454 342.044H231.177C232.233 342.044 233.09 341.188 233.09 340.131V292.307C233.09 291.25 232.233 290.393 231.177 290.393Z" fill="#E6E6E6"/>
<path d="M183.441 290.393H213.666L211.261 342.057H183.441V290.393Z" fill="#FAFAFA"/>
<path d="M217.581 290.393H210.519C210.006 290.447 209.532 290.692 209.192 291.079C208.851 291.466 208.669 291.967 208.681 292.483L206.453 339.967C206.418 340.214 206.433 340.465 206.498 340.705C206.562 340.945 206.675 341.17 206.829 341.365C206.984 341.561 207.176 341.723 207.395 341.842C207.613 341.961 207.854 342.034 208.102 342.057H215.164C215.676 342 216.148 341.755 216.488 341.368C216.828 340.982 217.011 340.482 217.002 339.967L219.205 292.483C219.24 292.239 219.226 291.989 219.163 291.751C219.099 291.512 218.989 291.288 218.837 291.093C218.686 290.898 218.496 290.736 218.28 290.615C218.065 290.495 217.827 290.42 217.581 290.393Z" fill="#F0F0F0"/>
<path d="M257.902 342.044H279.366V298.437H257.902V342.044Z" fill="#FAFAFA"/>
<path d="M281.455 298.45H277.742C276.984 298.45 276.37 299.064 276.37 299.822V340.685C276.37 341.442 276.984 342.057 277.742 342.057H281.455C282.213 342.057 282.828 341.442 282.828 340.685V299.822C282.828 299.064 282.213 298.45 281.455 298.45Z" fill="#F0F0F0"/>
<path d="M250.676 342.044H272.14V298.437H250.676V342.044Z" fill="#FAFAFA"/>
<path d="M274.23 298.45H270.516C269.758 298.45 269.144 299.064 269.144 299.822V340.685C269.144 341.442 269.758 342.057 270.516 342.057H274.23C274.987 342.057 275.602 341.442 275.602 340.685V299.822C275.602 299.064 274.987 298.45 274.23 298.45Z" fill="#E6E6E6"/>
<path d="M245.175 298.45H263.705L262.233 342.057H245.175V298.45Z" fill="#FAFAFA"/>
<path d="M266.097 298.45H261.767C261.175 298.45 260.672 299.243 260.647 300.212L259.325 340.294C259.325 341.264 259.74 342.057 260.332 342.057H264.662C265.254 342.057 265.757 341.264 265.783 340.294L267.142 300.212C267.142 299.243 266.689 298.45 266.097 298.45Z" fill="#F0F0F0"/>
<path d="M293.717 342.057H311.492V305.94H293.717V342.057Z" fill="#FAFAFA"/>
<path d="M313.216 305.927H310.132C309.506 305.927 308.999 306.435 308.999 307.06V340.911C308.999 341.537 309.506 342.044 310.132 342.044H313.216C313.842 342.044 314.349 341.537 314.349 340.911V307.06C314.349 306.435 313.842 305.927 313.216 305.927Z" fill="#F0F0F0"/>
<path d="M287.724 342.057H305.5V305.94H287.724V342.057Z" fill="#FAFAFA"/>
<path d="M307.237 305.927H304.152C303.527 305.927 303.02 306.435 303.02 307.06V340.911C303.02 341.537 303.527 342.044 304.152 342.044H307.237C307.862 342.044 308.37 341.537 308.37 340.911V307.06C308.37 306.435 307.862 305.927 307.237 305.927Z" fill="#E6E6E6"/>
<path d="M283.167 305.927H298.513L297.292 342.057H283.167V305.927Z" fill="#FAFAFA"/>
<path d="M300.502 305.902H296.914C296.423 305.902 296.008 306.557 295.983 307.363L294.862 340.571C294.862 341.377 295.202 342.032 295.693 342.032H299.281C299.759 342.032 300.187 341.377 300.212 340.571L301.333 307.363C301.358 306.582 300.98 305.902 300.502 305.902Z" fill="#F0F0F0"/>
<path d="M148.042 342.044H174.604V298.437H148.042V342.044Z" fill="#FAFAFA"/>
<path d="M177.373 298.45H172.426C171.585 298.45 170.903 299.132 170.903 299.973V340.534C170.903 341.375 171.585 342.057 172.426 342.057H177.373C178.214 342.057 178.896 341.375 178.896 340.534V299.973C178.896 299.132 178.214 298.45 177.373 298.45Z" fill="#F0F0F0"/>
<path d="M139.116 342.044H165.678V298.437H139.116V342.044Z" fill="#FAFAFA"/>
<path d="M168.422 298.45H163.475C162.634 298.45 161.952 299.132 161.952 299.973V340.534C161.952 341.375 162.634 342.057 163.475 342.057H168.422C169.264 342.057 169.946 341.375 169.946 340.534V299.973C169.946 299.132 169.264 298.45 168.422 298.45Z" fill="#E6E6E6"/>
<path d="M132.306 298.45H155.23L153.404 342.057H132.306V298.45Z" fill="#FAFAFA"/>
<path d="M158.188 298.45H152.838C152.428 298.518 152.057 298.736 151.799 299.062C151.541 299.387 151.413 299.798 151.44 300.212L149.804 340.294C149.804 341.264 150.32 342.057 151.063 342.057H156.413C156.823 341.989 157.193 341.771 157.452 341.445C157.71 341.119 157.838 340.709 157.81 340.294L159.485 300.212C159.485 299.243 158.918 298.45 158.188 298.45Z" fill="#F0F0F0"/>
<path d="M110.804 342.057H129.322V295.19H110.804V342.057Z" fill="#FAFAFA"/>
<path d="M130.984 295.177H128.051C127.321 295.177 126.729 295.769 126.729 296.499V340.722C126.729 341.452 127.321 342.044 128.051 342.044H130.984C131.714 342.044 132.306 341.452 132.306 340.722V296.499C132.306 295.769 131.714 295.177 130.984 295.177Z" fill="#F0F0F0"/>
<path d="M95.3837 342.057H115.79V290.406H95.3837V342.057Z" fill="#FAFAFA"/>
<path d="M117.615 290.393H114.392C113.586 290.393 112.932 291.047 112.932 291.854V340.584C112.932 341.39 113.586 342.044 114.392 342.044H117.615C118.422 342.044 119.075 341.39 119.075 340.584V291.854C119.075 291.047 118.422 290.393 117.615 290.393Z" fill="#F5F5F5"/>
<path d="M90.1594 290.393H107.771L106.374 342.057H90.1594V290.393Z" fill="#FAFAFA"/>
<path d="M110.049 290.393H105.933C105.366 290.393 104.888 291.337 104.863 292.483L103.604 339.967C103.604 341.113 104.007 342.057 104.573 342.057H108.639C109.206 342.057 109.684 341.113 109.709 339.967L110.968 292.483C111.031 291.337 110.603 290.393 110.049 290.393Z" fill="#F0F0F0"/>
<path d="M194.292 412.15H220.262V356.357H194.292V412.15Z" fill="#FAFAFA"/>
<path d="M222.742 356.357H218.349C217.403 356.357 216.637 357.124 216.637 358.069V410.438C216.637 411.384 217.403 412.15 218.349 412.15H222.742C223.688 412.15 224.454 411.384 224.454 410.438V358.069C224.454 357.124 223.688 356.357 222.742 356.357Z" fill="#F0F0F0"/>
<path d="M185.555 412.15H211.526V356.357H185.555V412.15Z" fill="#FAFAFA"/>
<path d="M213.993 356.357H209.6C208.654 356.357 207.888 357.124 207.888 358.069V410.438C207.888 411.384 208.654 412.15 209.6 412.15H213.993C214.939 412.15 215.705 411.384 215.705 410.438V358.069C215.705 357.124 214.939 356.357 213.993 356.357Z" fill="#E6E6E6"/>
<path d="M178.896 356.357H201.304L199.529 412.15H178.896V356.357Z" fill="#FAFAFA"/>
<path d="M204.212 356.357H198.975C198.257 356.357 197.641 357.365 197.603 358.611L195.966 409.897C195.966 411.155 196.47 412.15 197.225 412.15H202.462C203.18 412.15 203.721 411.143 203.822 409.897L205.458 358.611C205.471 357.365 204.917 356.357 204.212 356.357Z" fill="#F0F0F0"/>
<path d="M155.57 412.15H178.015V363.583H155.57V412.15Z" fill="#FAFAFA"/>
<path d="M180.155 363.583H176.366C175.545 363.583 174.88 364.248 174.88 365.069V410.665C174.88 411.485 175.545 412.15 176.366 412.15H180.155C180.975 412.15 181.64 411.485 181.64 410.665V365.069C181.64 364.248 180.975 363.583 180.155 363.583Z" fill="#F0F0F0"/>
<path d="M148.016 412.15H170.462V363.583H148.016V412.15Z" fill="#FAFAFA"/>
<path d="M172.602 363.583H168.813C167.992 363.583 167.327 364.248 167.327 365.069V410.665C167.327 411.485 167.992 412.15 168.813 412.15H172.602C173.422 412.15 174.087 411.485 174.087 410.665V365.069C174.087 364.248 173.422 363.583 172.602 363.583Z" fill="#E6E6E6"/>
<path d="M142.276 363.583H161.637L160.102 412.15H142.276V363.583Z" fill="#FAFAFA"/>
<path d="M164.142 363.583H159.623C159.006 363.583 158.477 364.464 158.44 365.547L157.03 410.186C157.03 411.269 157.458 412.15 158.075 412.15H162.607C163.223 412.15 163.752 411.269 163.777 410.186L165.2 365.547C165.238 364.464 164.759 363.583 164.142 363.583Z" fill="#F0F0F0"/>
<path d="M314.714 469C449.516 469 558.794 462.62 558.794 454.75C558.794 446.879 449.516 440.499 314.714 440.499C179.913 440.499 70.6345 446.879 70.6345 454.75C70.6345 462.62 179.913 469 314.714 469Z" fill="#F5F5F5"/>
<path d="M289.701 451.451C289.828 451.84 289.859 452.253 289.791 452.655C289.722 453.058 289.557 453.438 289.309 453.763C289.062 454.087 288.739 454.347 288.368 454.519C287.998 454.691 287.591 454.77 287.183 454.75H111.824C106.348 454.75 106.348 419.086 111.824 419.086H287.233C287.64 419.067 288.045 419.146 288.414 419.317C288.783 419.489 289.105 419.747 289.353 420.07C289.6 420.393 289.766 420.771 289.835 421.172C289.905 421.573 289.876 421.985 289.751 422.372C287.561 429.17 287.561 444.666 289.701 451.451Z" fill="#407BFF"/>
<path opacity="0.8" d="M289.449 423.253H183.038C178.846 423.253 178.846 450.583 183.038 450.583H289.449C287.649 443.722 287.649 430.101 289.449 423.253Z" fill="white"/>
<path opacity="0.2" d="M177.738 451.451C177.865 451.84 177.896 452.253 177.828 452.655C177.76 453.058 177.594 453.438 177.347 453.763C177.099 454.087 176.776 454.347 176.405 454.519C176.035 454.691 175.628 454.77 175.22 454.75H111.824C106.348 454.75 106.348 419.086 111.824 419.086H175.271C175.677 419.067 176.082 419.146 176.451 419.317C176.82 419.489 177.143 419.747 177.39 420.07C177.638 420.393 177.803 420.771 177.872 421.172C177.942 421.573 177.913 421.985 177.788 422.372C175.598 429.17 175.598 444.666 177.738 451.451Z" fill="black"/>
<path d="M138.865 419.086H124.375C118.899 419.086 118.899 454.75 124.375 454.75H138.865C133.439 454.75 133.439 419.086 138.865 419.086Z" fill="#407BFF"/>
<path d="M150.282 419.086H144.592C139.116 419.086 139.116 454.75 144.592 454.75H150.282C144.768 454.75 144.768 419.086 150.282 419.086Z" fill="#407BFF"/>
<path d="M101.602 416.128C100.998 417.588 102.483 419.086 104.498 419.086H262.207C268.64 419.086 268.64 387.023 262.207 387.023H104.485C102.471 387.023 100.985 388.509 101.59 389.982C104.107 396.087 104.107 410.023 101.602 416.128Z" fill="#263238"/>
<path opacity="0.2" d="M101.602 416.128C100.998 417.588 102.483 419.086 104.498 419.086H181.829C188.262 419.086 188.262 387.023 181.829 387.023H104.485C102.471 387.023 100.985 388.509 101.59 389.982C104.107 396.087 104.107 410.023 101.602 416.128Z" fill="black"/>
<path opacity="0.8" d="M101.879 390.762H178.67C183.592 390.762 183.592 415.335 178.67 415.335H101.879C103.994 409.129 103.994 396.93 101.879 390.762Z" fill="white"/>
<path opacity="0.2" d="M204.174 394.174C203.696 392.751 205.08 391.366 206.994 391.366H251.142C255.825 391.366 255.825 414.731 251.142 414.731H206.994C205.08 414.731 203.696 413.359 204.174 411.936C205.685 406.112 205.685 399.998 204.174 394.174Z" fill="white"/>
<path d="M523.345 401.815C523.484 402.241 523.524 402.693 523.461 403.136C523.399 403.58 523.236 404.003 522.984 404.374C522.732 404.745 522.399 405.053 522.01 405.275C521.621 405.497 521.186 405.626 520.739 405.654H335.435C329.644 405.654 329.644 364.112 335.435 364.112H520.739C521.179 364.142 521.606 364.271 521.989 364.489C522.372 364.708 522.701 365.009 522.952 365.372C523.202 365.735 523.368 366.15 523.436 366.586C523.504 367.021 523.473 367.467 523.345 367.889C521.091 375.882 521.091 393.922 523.345 401.815Z" fill="#407BFF"/>
<path opacity="0.5" d="M523.345 401.815C523.484 402.241 523.524 402.693 523.461 403.136C523.399 403.58 523.236 404.003 522.984 404.374C522.732 404.745 522.399 405.053 522.01 405.275C521.621 405.497 521.186 405.626 520.739 405.654H335.435C329.644 405.654 329.644 364.112 335.435 364.112H520.739C521.179 364.142 521.606 364.271 521.989 364.489C522.372 364.708 522.701 365.009 522.952 365.372C523.202 365.735 523.368 366.15 523.436 366.586C523.504 367.021 523.473 367.467 523.345 367.889C521.091 375.882 521.091 393.922 523.345 401.815Z" fill="white"/>
<path opacity="0.8" d="M523.093 368.996H410.664C406.233 368.996 406.233 400.795 410.664 400.795H523.093C521.167 392.827 521.167 376.977 523.093 368.996Z" fill="white"/>
<path opacity="0.6" d="M405.062 401.815C405.202 402.241 405.242 402.693 405.179 403.136C405.117 403.58 404.953 404.003 404.702 404.374C404.45 404.745 404.117 405.053 403.728 405.275C403.339 405.497 402.904 405.626 402.457 405.654H335.435C329.644 405.654 329.644 364.112 335.435 364.112H402.457C402.897 364.142 403.324 364.271 403.707 364.489C404.09 364.708 404.419 365.009 404.67 365.372C404.92 365.735 405.085 366.15 405.153 366.586C405.221 367.021 405.19 367.467 405.062 367.889C402.834 375.882 402.834 393.922 405.062 401.815Z" fill="#407BFF"/>
<path opacity="0.5" d="M377.871 367.221C378.002 366.896 378.056 366.545 378.026 366.195C377.997 365.846 377.886 365.508 377.702 365.209C377.519 364.91 377.267 364.659 376.969 364.475C376.67 364.291 376.332 364.179 375.983 364.15H350.428C344.637 364.15 344.637 405.692 350.428 405.692H375.983C376.333 405.66 376.67 405.547 376.969 405.362C377.267 405.177 377.518 404.924 377.702 404.624C377.885 404.325 377.996 403.986 378.026 403.636C378.055 403.286 378.002 402.934 377.871 402.608C375.29 394.891 375.29 374.913 377.871 367.221Z" fill="white"/>
<path d="M510.051 450.18C510.2 450.732 510.216 451.312 510.096 451.871C509.977 452.43 509.726 452.953 509.364 453.396C509.002 453.839 508.54 454.189 508.016 454.418C507.492 454.647 506.921 454.748 506.35 454.712H313.82C305.6 454.712 305.587 405.617 313.82 405.617H506.426C506.996 405.581 507.567 405.681 508.091 405.91C508.616 406.139 509.078 406.49 509.439 406.932C509.801 407.375 510.052 407.898 510.172 408.457C510.291 409.017 510.276 409.596 510.127 410.148C506.841 419.502 506.854 440.839 510.051 450.18Z" fill="#407BFF"/>
<path opacity="0.2" d="M510.051 450.18C510.2 450.732 510.216 451.312 510.096 451.871C509.977 452.43 509.726 452.953 509.364 453.396C509.002 453.839 508.54 454.189 508.016 454.418C507.492 454.647 506.921 454.748 506.35 454.712H313.82C305.6 454.712 305.587 405.617 313.82 405.617H506.426C506.996 405.581 507.567 405.681 508.091 405.91C508.616 406.139 509.078 406.49 509.439 406.932C509.801 407.375 510.052 407.898 510.172 408.457C510.291 409.017 510.276 409.596 510.127 410.148C506.841 419.502 506.854 440.839 510.051 450.18Z" fill="white"/>
<path opacity="0.8" d="M509.673 411.357H393.267C386.973 411.357 386.973 448.972 393.267 448.972H509.686C506.992 439.543 506.992 420.798 509.673 411.357Z" fill="white"/>
<path opacity="0.6" d="M385.311 450.205C385.462 450.756 385.48 451.336 385.362 451.895C385.245 452.455 384.995 452.978 384.634 453.421C384.273 453.865 383.812 454.216 383.288 454.444C382.764 454.673 382.193 454.774 381.622 454.737H313.82C305.6 454.737 305.587 405.642 313.82 405.642H381.622C382.193 405.606 382.764 405.707 383.288 405.935C383.812 406.164 384.274 406.515 384.636 406.958C384.998 407.401 385.249 407.923 385.368 408.483C385.488 409.042 385.473 409.621 385.323 410.174C382.113 419.527 382.113 440.852 385.311 450.205Z" fill="#407BFF"/>
<path opacity="0.5" d="M344.7 407.354C344.805 407.174 344.858 406.969 344.854 406.76C344.85 406.552 344.789 406.349 344.677 406.174C344.565 405.998 344.407 405.857 344.22 405.765C344.033 405.673 343.825 405.635 343.617 405.654H332.099C323.891 405.654 323.891 454.75 332.099 454.75H343.668C343.875 454.769 344.084 454.73 344.271 454.639C344.458 454.547 344.616 454.406 344.728 454.23C344.839 454.055 344.901 453.852 344.905 453.643C344.909 453.435 344.855 453.23 344.75 453.05C339.753 445.459 339.753 414.932 344.7 407.354Z" fill="white"/>
<path opacity="0.5" d="M362.677 407.354C362.78 407.173 362.833 406.967 362.828 406.759C362.824 406.551 362.763 406.348 362.651 406.172C362.54 405.996 362.383 405.853 362.196 405.76C362.01 405.666 361.802 405.626 361.594 405.642H350.075C341.868 405.642 341.868 454.737 350.075 454.737H361.594C361.8 454.754 362.007 454.714 362.192 454.621C362.377 454.528 362.534 454.387 362.644 454.212C362.754 454.036 362.814 453.834 362.818 453.627C362.821 453.421 362.768 453.217 362.664 453.038C357.729 445.459 357.729 414.92 362.677 407.354Z" fill="white"/>
<path d="M508.163 338.029C507.94 334.532 507.118 331.1 505.733 327.882L506.866 327.328C508.305 330.683 509.157 334.26 509.384 337.903L508.163 338.029Z" fill="#407BFF"/>
<path d="M500.27 322.431H469V323.69H500.27V322.431Z" fill="#407BFF"/>
<path d="M296.473 360.713C295.831 362.425 297.405 364.15 299.532 364.15H500.27C507.055 364.15 507.055 326.837 500.27 326.837H299.532C297.405 326.837 295.831 328.574 296.473 330.286C299.117 337.374 299.117 353.6 296.473 360.713Z" fill="#407BFF"/>
<path opacity="0.2" d="M296.473 360.713C295.831 362.425 297.405 364.15 299.532 364.15H415.347C422.145 364.15 422.145 326.837 415.347 326.837H299.532C297.405 326.837 295.831 328.574 296.473 330.286C299.117 337.374 299.117 353.6 296.473 360.713Z" fill="black"/>
<path opacity="0.8" d="M296.776 331.205H411.986C417.198 331.205 417.198 359.794 411.986 359.794H296.776C299.004 352.619 299.004 338.381 296.776 331.205Z" fill="white"/>
<path opacity="0.2" d="M438.951 335.158C438.447 333.509 439.908 331.911 441.922 331.911H488.575C493.522 331.911 493.522 359.089 488.575 359.089H441.922C439.908 359.089 438.447 357.491 438.951 355.829C440.6 350.605 440.6 340.395 438.951 335.158Z" fill="white"/>
<path d="M277.704 54.1309C272.026 60.2112 258.166 54.1309 256.052 70.8737C253.76 88.9257 262.447 97.5992 251.23 102.345C233.606 109.709 221.018 139.142 245.49 150.182C269.962 161.222 322.079 149.653 316.212 127.157C310.346 104.661 311.504 92.589 318.428 81.9894C327.555 67.9783 325.603 49.9767 318.164 43.4558C306.582 33.259 290.582 40.2835 277.704 54.1309Z" fill="#263238"/>
<path d="M307.992 126.553C307.896 126.557 307.802 126.524 307.729 126.46C307.657 126.397 307.611 126.309 307.602 126.213C307.593 126.162 307.594 126.111 307.606 126.061C307.618 126.011 307.64 125.964 307.67 125.922C307.701 125.881 307.74 125.846 307.784 125.821C307.829 125.795 307.878 125.779 307.929 125.772C312.788 125.105 315.684 123.909 317.043 121.996C318.73 119.617 318 116.079 317.043 111.598C315.558 104.309 313.506 94.3262 320.052 81.7125C327.995 66.4173 325.087 49.6494 317.647 44.1607C317.564 44.1002 317.509 44.0095 317.492 43.9082C317.476 43.8068 317.5 43.7031 317.559 43.6194C317.622 43.5356 317.715 43.4796 317.818 43.4631C317.922 43.4467 318.027 43.4711 318.113 43.5313C325.868 49.2088 328.864 66.4299 320.744 82.0775C314.337 94.4395 316.351 104.271 317.811 111.447C318.768 116.104 319.523 119.793 317.635 122.449C316.149 124.551 313.09 125.848 308.005 126.553H307.992Z" fill="#263238"/>
<path d="M244.52 104.75C243.725 104.746 242.931 104.696 242.141 104.598C242.09 104.592 242.04 104.576 241.995 104.55C241.95 104.525 241.911 104.49 241.879 104.449C241.847 104.408 241.824 104.362 241.811 104.311C241.797 104.261 241.794 104.209 241.801 104.158C241.807 104.106 241.824 104.057 241.849 104.012C241.875 103.967 241.909 103.927 241.95 103.896C241.991 103.864 242.038 103.841 242.088 103.827C242.138 103.814 242.191 103.811 242.242 103.818C245.817 104.259 248.41 103.73 250.16 102.194C253.433 99.3113 253.483 93.2814 253.521 86.2947C253.521 78.3891 253.635 69.4386 258.758 63.3332C258.791 63.2935 258.832 63.2607 258.877 63.2367C258.923 63.2127 258.973 63.1979 259.025 63.1933C259.076 63.1886 259.128 63.1941 259.177 63.2094C259.226 63.2248 259.272 63.2497 259.312 63.2828C259.352 63.3159 259.384 63.3564 259.408 63.4022C259.432 63.4479 259.447 63.4979 259.452 63.5493C259.457 63.6008 259.451 63.6526 259.436 63.7019C259.42 63.7512 259.395 63.797 259.362 63.8367C254.415 69.7282 254.327 78.5276 254.327 86.3073C254.327 93.4702 254.239 99.6638 250.701 102.786C248.957 104.187 246.753 104.887 244.52 104.75Z" fill="#263238"/>
<path d="M368.077 326.812C359.681 326.711 356.382 326.183 352.518 326.246C348.653 326.308 347.734 326.988 343.706 326.812C340.987 326.699 340.974 323.463 342.019 321.248C342.837 319.511 343.844 317.761 344.776 315.596L355.426 316.376C356.861 320.43 363.986 322.167 370.23 323.602C372.71 324.194 371.438 326.85 368.077 326.812Z" fill="#407BFF"/>
<path d="M312.549 172.161C312.549 172.161 340.722 196.394 369.198 222.1C381.232 232.989 355.992 316.011 355.992 316.011C355.463 317.786 346.072 315.256 344.662 313.858C344.662 313.858 343.227 249.417 349.333 236.439C286.189 220.476 276.319 189.471 276.319 189.471L280.851 170.235L312.549 172.161Z" fill="#263238"/>
<path opacity="0.2" d="M280.486 197.112C284.02 202.052 288.209 206.49 292.936 210.305C299.23 202.94 297.468 191.044 297.468 191.044L280.486 197.112Z" fill="black"/>
<path d="M358.183 312.423C358.006 313.682 357.704 315.91 357.541 317.559C357.515 317.826 357.389 318.074 357.188 318.251C356.987 318.429 356.726 318.524 356.458 318.516C352.245 318.186 348.073 317.461 343.995 316.351C343.799 316.297 343.625 316.18 343.501 316.019C343.376 315.858 343.306 315.661 343.303 315.457L343.215 310.862C343.214 310.713 343.245 310.565 343.305 310.428C343.365 310.291 343.453 310.168 343.563 310.068C343.673 309.967 343.803 309.89 343.945 309.843C344.087 309.795 344.237 309.778 344.386 309.792L357.377 311.366C357.5 311.38 357.62 311.418 357.728 311.48C357.836 311.541 357.931 311.623 358.006 311.722C358.081 311.821 358.136 311.934 358.166 312.055C358.197 312.175 358.202 312.301 358.183 312.423Z" fill="#263238"/>
<path opacity="0.3" d="M358.183 312.423C358.006 313.682 357.704 315.91 357.541 317.559C357.515 317.826 357.389 318.074 357.188 318.251C356.987 318.429 356.726 318.524 356.458 318.516C352.245 318.186 348.073 317.461 343.995 316.351C343.799 316.297 343.625 316.18 343.501 316.019C343.376 315.858 343.306 315.661 343.303 315.457L343.215 310.862C343.214 310.713 343.245 310.565 343.305 310.428C343.365 310.291 343.453 310.168 343.563 310.068C343.673 309.967 343.803 309.89 343.945 309.843C344.087 309.795 344.237 309.778 344.386 309.792L357.377 311.366C357.5 311.38 357.62 311.418 357.728 311.48C357.836 311.541 357.931 311.623 358.006 311.722C358.081 311.821 358.136 311.934 358.166 312.055C358.197 312.175 358.202 312.301 358.183 312.423Z" fill="white"/>
<path d="M244.81 387.023C236.275 387.023 233.48 383.813 228.709 382.932C224.681 382.177 223.611 382.529 220.363 381.963C217.644 381.484 217.43 379.621 219.104 376.864C220.196 374.958 221.123 372.962 221.874 370.897L234.815 371.753C236.162 375.215 239.271 382.252 244.017 383.083C248.486 383.952 248.209 387.023 244.81 387.023Z" fill="#407BFF"/>
<path d="M310.598 172.086C310.598 172.086 280.826 225.021 268.842 257.764C256.253 292.156 236.212 348.401 234.764 371.753C232.624 372.773 225.6 372.383 221.823 370.897C221.823 370.897 218.324 290.33 242.557 258.053C248.335 188.929 257.927 177.877 268.124 169.455L310.598 172.086Z" fill="#263238"/>
<path d="M236.325 366.982C236.171 368.576 236.129 370.179 236.199 371.778C236.217 372.057 236.123 372.331 235.939 372.541C235.755 372.751 235.496 372.879 235.217 372.899C230.396 373.339 223.674 371.791 221.546 371.262C221.348 371.213 221.172 371.1 221.045 370.94C220.918 370.781 220.846 370.585 220.841 370.381L220.678 365.874C220.675 365.726 220.704 365.579 220.762 365.443C220.819 365.306 220.905 365.183 221.013 365.081C221.12 364.98 221.248 364.901 221.387 364.851C221.527 364.801 221.675 364.781 221.823 364.792L235.469 365.962C235.593 365.972 235.713 366.006 235.824 366.062C235.934 366.119 236.032 366.197 236.112 366.292C236.191 366.387 236.251 366.497 236.288 366.616C236.325 366.734 236.337 366.859 236.325 366.982Z" fill="#263238"/>
<path opacity="0.3" d="M236.325 366.982C236.171 368.576 236.129 370.179 236.199 371.778C236.217 372.057 236.123 372.331 235.939 372.541C235.755 372.751 235.496 372.879 235.217 372.899C230.396 373.339 223.674 371.791 221.546 371.262C221.348 371.213 221.172 371.1 221.045 370.94C220.918 370.781 220.846 370.585 220.841 370.381L220.678 365.874C220.675 365.726 220.704 365.579 220.762 365.443C220.819 365.306 220.905 365.183 221.013 365.081C221.12 364.98 221.248 364.901 221.387 364.851C221.527 364.801 221.675 364.781 221.823 364.792L235.469 365.962C235.593 365.972 235.713 366.006 235.824 366.062C235.934 366.119 236.032 366.197 236.112 366.292C236.191 366.387 236.251 366.497 236.288 366.616C236.325 366.734 236.337 366.859 236.325 366.982Z" fill="white"/>
<path d="M318.491 120.158C319.75 122.537 321.109 125.193 322.494 127.711C323.879 130.229 325.276 132.747 326.686 135.201C329.531 140.149 332.502 144.995 335.687 149.565L333.975 148.042C335.238 148.93 336.631 149.618 338.104 150.081C339.886 150.679 341.713 151.133 343.567 151.441C345.506 151.793 347.52 152.032 349.572 152.221C351.624 152.41 353.777 152.523 355.741 152.649H356.005C356.823 152.696 357.598 153.026 358.199 153.583C358.8 154.14 359.188 154.888 359.296 155.7C359.405 156.512 359.228 157.336 358.795 158.031C358.362 158.727 357.7 159.249 356.924 159.51C354.675 160.258 352.373 160.839 350.038 161.247C347.691 161.664 345.319 161.921 342.938 162.015C340.411 162.112 337.882 161.96 335.385 161.562C332.567 161.137 329.842 160.235 327.328 158.893C326.805 158.607 326.34 158.228 325.956 157.773L325.616 157.37C323.614 154.978 321.663 152.536 319.876 150.031C318.088 147.526 316.338 144.995 314.714 142.477C313.09 139.96 311.517 137.278 310.031 134.622C308.546 131.966 307.136 129.335 305.789 126.427C305.082 124.775 305.033 122.915 305.651 121.227C306.27 119.539 307.51 118.152 309.117 117.348C310.725 116.544 312.579 116.385 314.3 116.902C316.021 117.42 317.48 118.576 318.378 120.133L318.491 120.158Z" fill="#FFB573"/>
<path d="M311.542 109.999C319.762 112.706 321.097 116.394 325.603 130.015C322.607 138.185 310.497 142.326 310.497 142.326C310.497 142.326 296.197 119.038 311.542 109.999Z" fill="#407BFF"/>
<path d="M322.796 127.724C322.33 132.23 321.172 137.606 318.742 148.168C316.854 157.131 316.829 174.604 313.808 175.522C308.004 178.393 293.477 177.285 268.124 169.455C268.929 156.363 270.453 147.475 266.097 117.439C265.823 115.864 265.903 114.248 266.332 112.709C266.762 111.169 267.529 109.744 268.578 108.538C269.627 107.333 270.931 106.376 272.397 105.738C273.862 105.1 275.452 104.797 277.049 104.85C278.887 104.85 280.826 105.001 282.802 105.178C289.775 105.597 296.708 106.518 303.548 107.934C305.776 108.438 308.08 109.03 310.27 109.634C314.128 110.736 317.484 113.14 319.768 116.439C322.052 119.737 323.122 123.725 322.796 127.724Z" fill="#407BFF"/>
<path d="M234.047 179.79L236.565 177.486C237.033 177.058 237.392 176.523 237.611 175.928C237.83 175.332 237.903 174.692 237.823 174.062L237.131 168.057C236.999 166.877 236.587 165.746 235.93 164.756C235.274 163.767 234.391 162.948 233.354 162.367L232.096 161.65C227.601 165.187 225.348 172.312 225.348 172.312L224.48 174.276C224.289 174.673 224.178 175.104 224.156 175.544C224.133 175.984 224.198 176.424 224.346 176.839C224.495 177.254 224.725 177.635 225.022 177.96C225.319 178.285 225.678 178.548 226.078 178.733L229.943 180.495C230.622 180.785 231.371 180.872 232.099 180.747C232.827 180.622 233.503 180.29 234.047 179.79Z" fill="#FFB573"/>
<path d="M366.189 149.552L362.966 148.293C362.37 148.068 361.728 147.989 361.095 148.064C360.462 148.138 359.856 148.364 359.328 148.721L354.293 152.095C353.304 152.76 352.49 153.652 351.918 154.697C351.347 155.742 351.034 156.909 351.007 158.1V159.598C356.206 161.965 363.596 160.681 363.596 160.681L365.736 160.555C366.176 160.54 366.609 160.438 367.01 160.256C367.411 160.073 367.772 159.812 368.071 159.489C368.371 159.166 368.604 158.787 368.756 158.373C368.908 157.96 368.977 157.52 368.958 157.08L368.757 152.838C368.699 152.099 368.424 151.393 367.968 150.808C367.511 150.224 366.892 149.787 366.189 149.552Z" fill="#FFB573"/>
<path d="M273.6 121.492L271.989 122.235L270.227 123.041C269.056 123.607 267.898 124.199 266.739 124.803C264.411 126.062 262.145 127.321 259.916 128.643C257.688 129.964 255.536 131.437 253.446 132.935C251.356 134.433 249.418 136.07 247.529 137.744L248.36 136.687C247.746 137.59 247.208 138.541 246.749 139.532C246.195 140.677 245.679 141.924 245.175 143.195C244.168 145.713 243.186 148.407 242.28 151.113C241.374 153.82 240.455 156.564 239.561 159.308L236.842 167.579C236.578 168.391 236.028 169.081 235.295 169.518C234.561 169.956 233.694 170.112 232.854 169.958C232.014 169.804 231.258 169.351 230.727 168.682C230.197 168.012 229.927 167.173 229.968 166.32C230.107 163.286 230.384 160.341 230.724 157.37C231.063 154.399 231.491 151.441 231.982 148.47C232.473 145.499 233.115 142.515 233.934 139.494C234.337 137.983 234.777 136.473 235.331 134.887C235.916 133.141 236.666 131.455 237.572 129.851C237.731 129.588 237.912 129.34 238.113 129.108L238.415 128.794C240.489 126.507 242.709 124.359 245.062 122.361C247.381 120.39 249.81 118.553 252.338 116.86C254.833 115.169 257.417 113.614 260.08 112.202C261.415 111.497 262.762 110.83 264.134 110.175C264.826 109.86 265.506 109.533 266.223 109.231C266.941 108.929 267.596 108.665 268.489 108.325C270.204 107.639 272.119 107.655 273.821 108.369C275.524 109.082 276.878 110.437 277.592 112.139C278.305 113.842 278.321 115.757 277.636 117.471C276.95 119.186 275.618 120.562 273.928 121.303L273.6 121.492Z" fill="#FFB573"/>
<path d="M285.761 108.123C279.592 103.705 275.841 103.226 260.911 109.709C259.136 119.101 264.952 132.885 264.952 132.885C264.952 132.885 284.816 122.537 285.761 108.123Z" fill="#407BFF"/>
<path d="M287.372 81.9642C288.291 88.8754 288.882 101.401 283.948 105.278C283.948 105.278 290.393 105.165 302.717 115.248C307.337 110.213 304.694 108.035 304.694 108.035C297.355 105.253 297.871 99.7015 299.469 94.6283L287.372 81.9642Z" fill="#FFB573"/>
<path d="M300.112 113.209C295.618 113.209 293.339 119.743 293.339 119.743C293.339 119.743 282.538 111.132 281.065 105.077C282.499 104.499 283.902 103.847 285.27 103.126C285.27 103.126 297.871 110.314 300.112 113.209Z" fill="white"/>
<path d="M304.417 113.045C304.417 113.045 307.816 114.304 308.936 119.34C311.24 109.747 306.745 108.237 306.745 108.237C305.619 107.392 304.219 106.997 302.818 107.129C303.737 107.77 304.401 108.715 304.693 109.796C304.985 110.878 304.887 112.028 304.417 113.045Z" fill="white"/>
<path opacity="0.2" d="M292.307 87.1255L299.457 94.6787C299.067 95.8594 298.785 97.0728 298.613 98.3042C295.794 97.5111 292.067 93.8478 291.941 90.7511C291.839 89.5304 291.963 88.3013 292.307 87.1255Z" fill="black"/>
<path d="M279.617 71.906C282.135 82.6567 283.054 87.2515 289.512 92.161C299.218 99.5379 311.819 94.7543 312.499 83.626C313.103 73.5551 308.798 57.6935 297.392 54.6723C294.976 53.9457 292.409 53.8776 289.957 54.4749C287.505 55.0722 285.257 56.3134 283.445 58.0701C281.633 59.8268 280.323 62.0354 279.65 64.4677C278.977 66.9 278.966 69.4679 279.617 71.906Z" fill="#FFB573"/>
<path d="M281.72 79.6353C285.672 77.6967 289.864 68.1671 284.237 63.6604C288.882 64.5291 294.207 63.2828 299.13 59.481C305.55 54.4456 315.004 66.9461 311.894 59.6069C307.413 49.0325 293.905 46.3889 281.682 55.1757C269.458 63.9626 270.327 74.6503 281.72 79.6353Z" fill="#263238"/>
<path d="M278.371 77.4827C278.328 77.4784 278.288 77.4605 278.256 77.4315C278.224 77.4025 278.202 77.3641 278.194 77.3218C278.185 77.2796 278.19 77.2357 278.209 77.1967C278.227 77.1577 278.258 77.1256 278.295 77.1051C281.443 75.7455 294.799 72.9005 295.366 72.7872C295.391 72.7797 295.418 72.7778 295.445 72.7815C295.471 72.7852 295.497 72.7946 295.519 72.8088C295.542 72.8231 295.561 72.842 295.576 72.8644C295.591 72.8867 295.6 72.9119 295.605 72.9383C295.612 72.9881 295.601 73.039 295.573 73.081C295.545 73.1229 295.503 73.1529 295.454 73.1649C295.315 73.1649 281.606 76.1232 278.447 77.4701L278.371 77.4827Z" fill="white"/>
<path opacity="0.2" d="M294.573 73.0137C293.223 72.4203 291.694 72.3841 290.318 72.913C291.716 73.2226 293.161 73.2568 294.573 73.0137Z" fill="black"/>
<path opacity="0.2" d="M294.459 73.9705C293.804 73.8323 293.127 73.8384 292.475 73.9884C291.823 74.1385 291.211 74.4287 290.683 74.8391C291.989 74.8182 293.275 74.5223 294.459 73.9705Z" fill="black"/>
<path d="M296.914 72.8627C297.09 73.7817 297.707 74.4615 298.299 74.3859C298.89 74.3104 299.218 73.5173 299.042 72.5984C298.865 71.6794 298.236 71.0122 297.657 71.0752C297.078 71.1381 296.738 71.9564 296.914 72.8627Z" fill="#263238"/>
<path d="M307.967 71.6668C308.143 72.5731 308.772 73.2529 309.352 73.19C309.931 73.127 310.271 72.3088 310.094 71.4024C309.918 70.496 309.301 69.8036 308.71 69.8792C308.118 69.9547 307.791 70.7478 307.967 71.6668Z" fill="#263238"/>
<path d="M308.42 69.9673L310.459 69.0609C310.459 69.0609 309.679 70.9114 308.42 69.9673Z" fill="#263238"/>
<path d="M305.902 73.4166C306.992 75.4703 308.337 77.3779 309.906 79.094C309.476 79.4544 308.973 79.7148 308.43 79.8563C307.888 79.9978 307.321 80.017 306.771 79.9123L305.902 73.4166Z" fill="#ED893E"/>
<path d="M301.937 83.9784C302.444 84.0215 302.953 84.0215 303.46 83.9784C303.495 83.9739 303.528 83.9624 303.558 83.9444C303.587 83.9265 303.613 83.9026 303.633 83.8742C303.653 83.8458 303.667 83.8136 303.674 83.7795C303.681 83.7454 303.681 83.7103 303.674 83.6763C303.662 83.6039 303.622 83.539 303.564 83.4946C303.505 83.4502 303.432 83.4296 303.359 83.4371C302.22 83.5751 301.064 83.4581 299.976 83.0945C298.887 82.7309 297.893 82.1298 297.065 81.3348C297.04 81.3097 297.011 81.2897 296.979 81.2761C296.946 81.2625 296.911 81.2554 296.876 81.2554C296.841 81.2554 296.806 81.2625 296.774 81.2761C296.741 81.2897 296.712 81.3097 296.687 81.3348C296.64 81.3861 296.613 81.4535 296.613 81.5236C296.613 81.5937 296.64 81.6612 296.687 81.7124C298.103 83.0812 299.97 83.8868 301.937 83.9784Z" fill="#263238"/>
<path d="M277.062 81.5362C277.669 82.4017 278.448 83.1318 279.352 83.6801C280.256 84.2283 281.263 84.5828 282.311 84.7211C284.93 84.9351 285.496 81.8887 284.162 79.1821C282.966 76.7525 280.159 73.6935 277.868 74.7509C275.576 75.8084 275.362 79.308 277.062 81.5362Z" fill="#FFB573"/>
<path d="M293.377 65.9263C293.447 65.9264 293.516 65.9105 293.58 65.88C293.643 65.8495 293.698 65.8051 293.742 65.7501C294.147 65.2316 294.673 64.8212 295.275 64.5554C295.877 64.2897 296.535 64.1768 297.191 64.2269C297.259 64.2375 297.329 64.234 297.396 64.2166C297.462 64.1993 297.525 64.1684 297.579 64.1259C297.633 64.0834 297.678 64.0302 297.711 63.9696C297.744 63.9091 297.764 63.8424 297.77 63.7737C297.776 63.6291 297.729 63.4874 297.639 63.3742C297.549 63.261 297.421 63.1839 297.279 63.1569C296.451 63.0835 295.617 63.2164 294.853 63.5437C294.089 63.871 293.417 64.3825 292.898 65.0326C292.838 65.1185 292.802 65.2196 292.795 65.3247C292.789 65.4298 292.812 65.5346 292.861 65.6274C292.911 65.7202 292.985 65.7974 293.077 65.8502C293.168 65.903 293.272 65.9294 293.377 65.9263Z" fill="#263238"/>
<path d="M310.006 65.4606C310.073 65.4681 310.142 65.462 310.206 65.4425C310.271 65.423 310.332 65.3907 310.384 65.3474C310.434 65.2981 310.474 65.2394 310.501 65.1745C310.528 65.1097 310.542 65.04 310.542 64.9697C310.542 64.8994 310.528 64.8297 310.501 64.7649C310.474 64.7 310.434 64.6413 310.384 64.592C309.84 63.9089 309.146 63.3604 308.355 62.9893C307.565 62.6181 306.7 62.4342 305.827 62.452C305.757 62.4576 305.689 62.478 305.628 62.5118C305.567 62.5457 305.514 62.5921 305.472 62.6481C305.431 62.7041 305.401 62.7683 305.387 62.8366C305.372 62.9048 305.371 62.9754 305.386 63.0436C305.408 63.1859 305.482 63.3151 305.593 63.4058C305.705 63.4966 305.847 63.5425 305.99 63.5346C306.682 63.5272 307.367 63.6788 307.991 63.9778C308.615 64.2768 309.163 64.7152 309.591 65.2592C309.641 65.3213 309.704 65.3716 309.776 65.4064C309.848 65.4413 309.926 65.4598 310.006 65.4606Z" fill="#263238"/>
<path d="M300.325 78.5653C297.669 78.5653 295.365 75.7455 295.114 72.1326C294.961 70.4309 295.354 68.7248 296.234 67.2608C296.582 66.6402 297.073 66.1118 297.666 65.7198C298.26 65.3278 298.938 65.0835 299.646 65.0074C302.428 64.8186 304.87 67.7014 305.134 71.4402C305.399 75.179 303.347 78.3639 300.59 78.5527L300.325 78.5653ZM299.91 65.4606H299.683C299.036 65.5349 298.415 65.7619 297.872 66.123C297.329 66.4842 296.88 66.969 296.561 67.5377C295.726 68.9303 295.355 70.553 295.504 72.1703C295.743 75.6825 298.022 78.3891 300.539 78.2254C303.057 78.0618 304.958 75.0405 304.719 71.5283C304.48 68.0161 302.365 65.4606 299.91 65.4606Z" fill="white"/>
<path d="M312.096 77.8855C309.44 77.8855 307.123 75.0782 306.872 71.4653C306.725 69.7641 307.117 68.0599 307.992 66.5935C308.342 65.9727 308.836 65.4444 309.431 65.0524C310.027 64.6605 310.707 64.4164 311.416 64.3402C314.173 64.1514 316.64 67.0341 316.892 70.7604C317.039 72.4616 316.647 74.1658 315.772 75.6321C315.423 76.2544 314.93 76.7838 314.334 77.1759C313.738 77.568 313.057 77.8113 312.348 77.8855H312.096ZM311.68 64.7304H311.441C310.794 64.8047 310.173 65.0317 309.63 65.3929C309.087 65.754 308.638 66.2389 308.319 66.8076C307.495 68.2046 307.125 69.8236 307.262 71.4401C307.501 74.8391 309.641 77.4952 312.096 77.4952H312.322C312.971 77.424 313.593 77.1982 314.136 76.8367C314.679 76.4753 315.128 75.9888 315.444 75.4181C316.274 74.0275 316.644 72.411 316.502 70.7981C316.263 67.3866 314.123 64.7304 311.68 64.7304Z" fill="white"/>
<path d="M307.161 71.9815C307.128 71.9797 307.095 71.9695 307.067 71.9519C307.038 71.9343 307.014 71.9099 306.997 71.8808C306.519 71.1255 305.122 71.9437 305.109 71.9437C305.088 71.9574 305.064 71.9666 305.039 71.9709C305.014 71.9751 304.988 71.9743 304.964 71.9684C304.939 71.9625 304.916 71.9517 304.895 71.9367C304.875 71.9216 304.858 71.9026 304.845 71.8808C304.813 71.8441 304.795 71.7972 304.795 71.7486C304.795 71.7 304.813 71.6531 304.845 71.6164C304.92 71.6164 306.582 70.5842 307.262 71.6164C307.277 71.6372 307.288 71.6611 307.294 71.6865C307.299 71.7119 307.299 71.7382 307.293 71.7634C307.287 71.7887 307.275 71.8123 307.259 71.8326C307.243 71.8529 307.222 71.8693 307.199 71.8808C307.2 71.8993 307.197 71.9177 307.19 71.935C307.184 71.9523 307.174 71.9681 307.161 71.9815Z" fill="white"/>
<path d="M297.405 71.1632L299.432 70.2694C299.432 70.2694 298.664 72.1199 297.405 71.1632Z" fill="#263238"/>
</svg>
