<svg width="24" height="24" viewBox="0 0 24 24" fill="none" xmlns="http://www.w3.org/2000/svg">
<path d="M17 2H7C5.67392 2 4.40215 2.52678 3.46447 3.46447C2.52678 4.40215 2 5.67392 2 7V17C2 18.3261 2.52678 19.5979 3.46447 20.5355C4.40215 21.4732 5.67392 22 7 22H17C18.3261 22 19.5979 21.4732 20.5355 20.5355C21.4732 19.5979 22 18.3261 22 17V7C22 5.67392 21.4732 4.40215 20.5355 3.46447C19.5979 2.52678 18.3261 2 17 2ZM20 17C20 17.7956 19.6839 18.5587 19.1213 19.1213C18.5587 19.6839 17.7956 20 17 20H7C6.20435 20 5.44129 19.6839 4.87868 19.1213C4.31607 18.5587 4 17.7956 4 17V7C4 6.20435 4.31607 5.44129 4.87868 4.87868C5.44129 4.31607 6.20435 4 7 4H17C17.7956 4 18.5587 4.31607 19.1213 4.87868C19.6839 5.44129 20 6.20435 20 7V17Z" fill="#2D6E41"/>
<path d="M10.5356 14.9689C10.4137 14.9181 10.3031 14.8437 10.2102 14.75L8.29019 12.83C8.10188 12.6417 7.99609 12.3863 7.99609 12.12C7.99609 11.8537 8.10188 11.5983 8.29019 11.41C8.47849 11.2217 8.73388 11.1159 9.00019 11.1159C9.26649 11.1159 9.52188 11.2217 9.71019 11.41L10.9202 12.63L14.2902 9.24999C14.4785 9.06169 14.7339 8.9559 15.0002 8.9559C15.2665 8.9559 15.5219 9.06169 15.7102 9.24999C15.8985 9.4383 16.0043 9.69369 16.0043 9.95999C16.0043 10.2263 15.8985 10.4817 15.7102 10.67L11.6302 14.75C11.5372 14.8437 11.4266 14.9181 11.3048 14.9689C11.1829 15.0197 11.0522 15.0458 10.9202 15.0458C10.7882 15.0458 10.6575 15.0197 10.5356 14.9689Z" fill="#2D6E41"/>
</svg>
