<svg width="10" height="8" viewBox="0 0 10 8" fill="none" xmlns="http://www.w3.org/2000/svg">
<path d="M3.53561 6.96888C3.41375 6.91812 3.30315 6.84372 3.21019 6.74999L1.29019 4.82999C1.10188 4.64169 0.996094 4.38629 0.996094 4.11999C0.996094 3.85369 1.10188 3.5983 1.29019 3.40999C1.47849 3.22169 1.73388 3.1159 2.00019 3.1159C2.26649 3.1159 2.52188 3.22169 2.71019 3.40999L3.92019 4.62999L7.29019 1.24999C7.47849 1.06169 7.73388 0.955902 8.00019 0.955902C8.26649 0.955902 8.52188 1.06169 8.71019 1.24999C8.89849 1.4383 9.00428 1.69369 9.00428 1.95999C9.00428 2.22629 8.89849 2.48169 8.71019 2.66999L4.63019 6.74999C4.53722 6.84372 4.42662 6.91812 4.30476 6.96888C4.1829 7.01965 4.0522 7.04579 3.92019 7.04579C3.78817 7.04579 3.65747 7.01965 3.53561 6.96888Z" fill="#2D6E41"/>
</svg>
