<svg width="34" height="34" viewBox="0 0 34 34" fill="none" xmlns="http://www.w3.org/2000/svg">
<path d="M30.3159 13.48L28.9826 12.7467L16.9826 6.08H16.8359C16.7542 6.04544 16.6694 6.01865 16.5826 6H16.3293H16.0893C15.9982 6.01867 15.9089 6.04544 15.8226 6.08H15.6759L3.67593 12.7467C3.47073 12.863 3.30006 13.0316 3.18131 13.2354C3.06256 13.4392 3 13.6708 3 13.9067C3 14.1425 3.06256 14.3742 3.18131 14.5779C3.30006 14.7817 3.47073 14.9504 3.67593 15.0667L6.99593 16.9067V23.2267C6.99593 24.2875 7.41736 25.3049 8.1675 26.0551C8.91765 26.8052 9.93506 27.2267 10.9959 27.2267H21.6626C22.7235 27.2267 23.7409 26.8052 24.491 26.0551C25.2412 25.3049 25.6626 24.2875 25.6626 23.2267V16.9067L28.3293 15.4133V19.2267C28.3293 19.5803 28.4697 19.9194 28.7198 20.1695C28.9698 20.4195 29.309 20.56 29.6626 20.56C30.0162 20.56 30.3554 20.4195 30.6054 20.1695C30.8555 19.9194 30.9959 19.5803 30.9959 19.2267V14.64C30.9955 14.4037 30.9323 14.1718 30.8129 13.968C30.6934 13.7642 30.5219 13.5958 30.3159 13.48V13.48ZM22.9959 23.2267C22.9959 23.5803 22.8555 23.9194 22.6054 24.1695C22.3554 24.4195 22.0162 24.56 21.6626 24.56H10.9959C10.6423 24.56 10.3032 24.4195 10.0531 24.1695C9.80307 23.9194 9.6626 23.5803 9.6626 23.2267V18.3867L15.6759 21.72L15.8759 21.8H15.9959C16.1066 21.8139 16.2186 21.8139 16.3293 21.8C16.4399 21.8139 16.5519 21.8139 16.6626 21.8H16.7826C16.8534 21.7851 16.921 21.758 16.9826 21.72L22.9959 18.3867V23.2267ZM16.3293 19.04L7.07593 13.8933L16.3293 8.74667L25.5826 13.8933L16.3293 19.04Z" fill="#1F1F1F"/>
</svg>
