<svg width="48" height="48" viewBox="0 0 48 48" fill="none" xmlns="http://www.w3.org/2000/svg">
<path d="M42.8199 17.28C42.8199 17.28 42.8199 17.28 42.8199 17.18C41.4107 13.3325 38.8537 10.0106 35.4949 7.66373C32.136 5.31689 28.1374 4.05835 24.0399 4.05835C19.9424 4.05835 15.9438 5.31689 12.5849 7.66373C9.22607 10.0106 6.6691 13.3325 5.2599 17.18C5.2599 17.18 5.2599 17.18 5.2599 17.28C3.68615 21.6218 3.68615 26.3782 5.2599 30.72C5.2599 30.72 5.2599 30.72 5.2599 30.82C6.6691 34.6676 9.22607 37.9894 12.5849 40.3363C15.9438 42.6831 19.9424 43.9417 24.0399 43.9417C28.1374 43.9417 32.136 42.6831 35.4949 40.3363C38.8537 37.9894 41.4107 34.6676 42.8199 30.82C42.8199 30.82 42.8199 30.82 42.8199 30.72C44.3936 26.3782 44.3936 21.6218 42.8199 17.28ZM8.5199 28C7.82636 25.3784 7.82636 22.6216 8.5199 20H12.2399C11.92 22.6571 11.92 25.3429 12.2399 28H8.5199ZM10.1599 32H12.9599C13.4293 33.7837 14.1003 35.5081 14.9599 37.14C12.9985 35.8039 11.3589 34.0481 10.1599 32ZM12.9599 16H10.1599C11.3416 13.9582 12.9603 12.2029 14.8999 10.86C14.061 12.4945 13.4102 14.2188 12.9599 16ZM21.9999 39.4C19.5434 37.5974 17.8182 34.9705 17.1399 32H21.9999V39.4ZM21.9999 28H16.2799C15.9067 25.3464 15.9067 22.6536 16.2799 20H21.9999V28ZM21.9999 16H17.1399C17.8182 13.0295 19.5434 10.4026 21.9999 8.60001V16ZM37.8399 16H35.0399C34.5705 14.2163 33.8995 12.4919 33.0399 10.86C35.0013 12.1961 36.6409 13.9519 37.8399 16ZM25.9999 8.60001C28.4564 10.4026 30.1816 13.0295 30.8599 16H25.9999V8.60001ZM25.9999 39.4V32H30.8599C30.1816 34.9705 28.4564 37.5974 25.9999 39.4ZM31.7199 28H25.9999V20H31.7199C32.0931 22.6536 32.0931 25.3464 31.7199 28ZM33.0999 37.14C33.9595 35.5081 34.6305 33.7837 35.0999 32H37.8999C36.7009 34.0481 35.0613 35.8039 33.0999 37.14ZM39.4799 28H35.7599C35.9226 26.6729 36.0027 25.337 35.9999 24C36.0021 22.663 35.9219 21.3271 35.7599 20H39.4799C40.1734 22.6216 40.1734 25.3784 39.4799 28Z" fill="white"/>
</svg>
