<svg width="48" height="48" viewBox="0 0 48 48" fill="none" xmlns="http://www.w3.org/2000/svg">
<path d="M43.8401 23.2C39.8001 13.82 32.2001 8 24.0001 8C15.8001 8 8.20013 13.82 4.16013 23.2C4.05001 23.4523 3.99316 23.7247 3.99316 24C3.99316 24.2753 4.05001 24.5477 4.16013 24.8C8.20013 34.18 15.8001 40 24.0001 40C32.2001 40 39.8001 34.18 43.8401 24.8C43.9503 24.5477 44.0071 24.2753 44.0071 24C44.0071 23.7247 43.9503 23.4523 43.8401 23.2ZM24.0001 36C17.6601 36 11.6601 31.42 8.20013 24C11.6601 16.58 17.6601 12 24.0001 12C30.3401 12 36.3401 16.58 39.8001 24C36.3401 31.42 30.3401 36 24.0001 36ZM24.0001 16C22.4179 16 20.8712 16.4692 19.5556 17.3482C18.24 18.2273 17.2146 19.4767 16.6091 20.9385C16.0036 22.4003 15.8452 24.0089 16.1539 25.5607C16.4625 27.1126 17.2245 28.538 18.3433 29.6569C19.4621 30.7757 20.8876 31.5376 22.4394 31.8463C23.9913 32.155 25.5998 31.9965 27.0616 31.391C28.5234 30.7855 29.7728 29.7602 30.6519 28.4446C31.5309 27.129 32.0001 25.5823 32.0001 24C32.0001 21.8783 31.1573 19.8434 29.657 18.3431C28.1567 16.8429 26.1219 16 24.0001 16ZM24.0001 28C23.209 28 22.4356 27.7654 21.7779 27.3259C21.1201 26.8864 20.6074 26.2616 20.3046 25.5307C20.0019 24.7998 19.9227 23.9956 20.077 23.2196C20.2313 22.4437 20.6123 21.731 21.1717 21.1716C21.7311 20.6122 22.4438 20.2312 23.2198 20.0769C23.9957 19.9225 24.8 20.0017 25.5309 20.3045C26.2618 20.6072 26.8865 21.1199 27.326 21.7777C27.7655 22.4355 28.0001 23.2089 28.0001 24C28.0001 25.0609 27.5787 26.0783 26.8286 26.8284C26.0784 27.5786 25.061 28 24.0001 28Z" fill="white"/>
</svg>
