<svg width="139" height="32" viewBox="0 0 139 32" fill="none" xmlns="http://www.w3.org/2000/svg">
<path d="M43.088 10.424V16.832L49.232 10.424H53.12L46.256 17.432L53.576 26H49.904L44.36 19.4L43.088 20.696V26H40.232V10.424H43.088ZM64.0711 15.728C64.4711 16.24 64.7671 16.832 64.9591 17.504C65.1671 18.176 65.2711 18.792 65.2711 19.352C65.2711 19.912 65.2391 20.416 65.1751 20.864H57.6391C57.6711 21.808 57.9031 22.576 58.3351 23.168C58.7671 23.76 59.4231 24.056 60.3031 24.056C61.4711 24.056 62.1671 23.544 62.3911 22.52H65.2471C65.0551 23.688 64.5191 24.608 63.6391 25.28C62.7271 25.984 61.6151 26.336 60.3031 26.336C58.7671 26.336 57.4791 25.776 56.4391 24.656C55.3671 23.488 54.8311 21.992 54.8311 20.168C54.8311 18.296 55.3671 16.792 56.4391 15.656C57.4631 14.568 58.7511 14.024 60.3031 14.024C61.9191 14.024 63.1751 14.592 64.0711 15.728ZM60.3271 16.28C59.5271 16.28 58.9031 16.544 58.4551 17.072C58.0071 17.584 57.7431 18.248 57.6631 19.064H62.6311C62.6311 17.8 62.2311 16.952 61.4311 16.52C61.1271 16.36 60.7591 16.28 60.3271 16.28ZM76.7977 15.728C77.1977 16.24 77.4937 16.832 77.6857 17.504C77.8937 18.176 77.9977 18.792 77.9977 19.352C77.9977 19.912 77.9657 20.416 77.9017 20.864H70.3657C70.3977 21.808 70.6297 22.576 71.0617 23.168C71.4937 23.76 72.1497 24.056 73.0297 24.056C74.1977 24.056 74.8937 23.544 75.1177 22.52H77.9737C77.7817 23.688 77.2457 24.608 76.3657 25.28C75.4537 25.984 74.3417 26.336 73.0297 26.336C71.4937 26.336 70.2057 25.776 69.1657 24.656C68.0937 23.488 67.5577 21.992 67.5577 20.168C67.5577 18.296 68.0937 16.792 69.1657 15.656C70.1897 14.568 71.4777 14.024 73.0297 14.024C74.6457 14.024 75.9017 14.592 76.7977 15.728ZM73.0537 16.28C72.2537 16.28 71.6297 16.544 71.1817 17.072C70.7337 17.584 70.4697 18.248 70.3897 19.064H75.3577C75.3577 17.8 74.9577 16.952 74.1577 16.52C73.8537 16.36 73.4857 16.28 73.0537 16.28Z" fill="#1F1F1F"/>
<path d="M81.3883 9.536H84.2203V26H81.3883V9.536ZM96.8133 15.728C97.2133 16.24 97.5093 16.832 97.7013 17.504C97.9093 18.176 98.0133 18.792 98.0133 19.352C98.0133 19.912 97.9813 20.416 97.9173 20.864H90.3813C90.4133 21.808 90.6453 22.576 91.0773 23.168C91.5093 23.76 92.1653 24.056 93.0453 24.056C94.2133 24.056 94.9093 23.544 95.1333 22.52H97.9893C97.7973 23.688 97.2613 24.608 96.3813 25.28C95.4693 25.984 94.3573 26.336 93.0453 26.336C91.5093 26.336 90.2213 25.776 89.1813 24.656C88.1093 23.488 87.5733 21.992 87.5733 20.168C87.5733 18.296 88.1093 16.792 89.1813 15.656C90.2053 14.568 91.4933 14.024 93.0453 14.024C94.6613 14.024 95.9173 14.592 96.8133 15.728ZM93.0693 16.28C92.2693 16.28 91.6453 16.544 91.1973 17.072C90.7493 17.584 90.4853 18.248 90.4053 19.064H95.3733C95.3733 17.8 94.9733 16.952 94.1733 16.52C93.8693 16.36 93.5013 16.28 93.0693 16.28ZM105.244 19.184C106.172 19.184 107.244 19.336 108.46 19.64V18.488C108.46 17.672 108.292 17.072 107.956 16.688C107.636 16.288 107.1 16.088 106.348 16.088C105.612 16.088 105.044 16.24 104.644 16.544C104.244 16.832 104.044 17.248 104.044 17.792H100.948C100.948 16.464 101.412 15.504 102.34 14.912C103.284 14.32 104.596 14.024 106.276 14.024C108.676 14.024 110.228 14.864 110.932 16.544C111.172 17.12 111.292 17.8 111.292 18.584V26H108.82L108.604 24.44C107.852 25.704 106.7 26.336 105.148 26.336C103.644 26.336 102.476 25.968 101.644 25.232C100.876 24.528 100.492 23.64 100.492 22.568C100.492 21.48 100.916 20.648 101.764 20.072C102.612 19.48 103.772 19.184 105.244 19.184ZM108.46 21.44C107.516 21.184 106.636 21.056 105.82 21.056C104.284 21.056 103.516 21.568 103.516 22.592C103.516 23.024 103.692 23.4 104.044 23.72C104.396 24.024 104.956 24.176 105.724 24.176C106.508 24.176 107.148 23.92 107.644 23.408C108.156 22.88 108.428 22.224 108.46 21.44ZM118.252 16.64C118.956 14.96 120.012 14.12 121.42 14.12C121.692 14.12 122.036 14.176 122.452 14.288L122.404 17.12C121.956 17.024 121.516 16.976 121.084 16.976C119.196 16.976 118.252 18.28 118.252 20.888V26H115.42V14.312H118.252V16.64ZM128.188 16.352C128.956 14.8 130.188 14.024 131.884 14.024C133.324 14.024 134.404 14.496 135.124 15.44C135.86 16.384 136.228 17.632 136.228 19.184V26H133.396V19.184C133.396 18.32 133.188 17.672 132.772 17.24C132.356 16.792 131.772 16.568 131.02 16.568C130.268 16.568 129.62 16.904 129.076 17.576C128.548 18.248 128.268 19.256 128.236 20.6V26H125.404V14.336H127.876L128.188 16.352Z" fill="#258AFF"/>
<path d="M28.6533 13.5867L27.32 12.8533L15.32 6.18666H15.1733C15.0916 6.1521 15.0068 6.12531 14.92 6.10666H14.6667H14.4267C14.3356 6.12532 14.2463 6.1521 14.16 6.18666H14.0133L2.01333 12.8533C1.80814 12.9696 1.63746 13.1383 1.51871 13.342C1.39997 13.5458 1.3374 13.7775 1.3374 14.0133C1.3374 14.2492 1.39997 14.4808 1.51871 14.6846C1.63746 14.8884 1.80814 15.057 2.01333 15.1733L5.33333 17.0133V23.3333C5.33333 24.3942 5.75476 25.4116 6.50491 26.1618C7.25505 26.9119 8.27247 27.3333 9.33333 27.3333H20C21.0609 27.3333 22.0783 26.9119 22.8284 26.1618C23.5786 25.4116 24 24.3942 24 23.3333V17.0133L26.6667 15.52V19.3333C26.6667 19.6869 26.8071 20.0261 27.0572 20.2761C27.3072 20.5262 27.6464 20.6667 28 20.6667C28.3536 20.6667 28.6928 20.5262 28.9428 20.2761C29.1929 20.0261 29.3333 19.6869 29.3333 19.3333V14.7467C29.3329 14.5104 29.2697 14.2785 29.1503 14.0747C29.0308 13.8708 28.8593 13.7024 28.6533 13.5867ZM21.3333 23.3333C21.3333 23.6869 21.1929 24.0261 20.9428 24.2761C20.6928 24.5262 20.3536 24.6667 20 24.6667H9.33333C8.97971 24.6667 8.64057 24.5262 8.39052 24.2761C8.14048 24.0261 8 23.6869 8 23.3333V18.4933L14.0133 21.8267L14.2133 21.9067H14.3333C14.444 21.9206 14.556 21.9206 14.6667 21.9067C14.7773 21.9206 14.8893 21.9206 15 21.9067H15.12C15.1908 21.8917 15.2584 21.8647 15.32 21.8267L21.3333 18.4933V23.3333ZM14.6667 19.1467L5.41333 14L14.6667 8.85333L23.92 14L14.6667 19.1467Z" fill="#1F1F1F"/>
</svg>
